<svg width="80" height="80" viewBox="0 0 80 80" fill="none" xmlns="http://www.w3.org/2000/svg">
<path d="M0 40C0 17.9086 17.9086 0 40 0C62.0914 0 80 17.9086 80 40C80 62.0914 62.0914 80 40 80C17.9086 80 0 62.0914 0 40Z" fill="#F2F2F7"/>
<path fill-rule="evenodd" clip-rule="evenodd" d="M32.0055 34.4977C33.3715 34.4997 34.6176 35.4361 35.4216 37.066L37.5319 41.3238C37.6139 41.4878 37.9723 41.7519 38.1423 41.7819L41.9655 42.4225C43.7074 42.7165 44.9421 43.6257 45.3561 44.9195C45.7701 46.2155 45.2897 47.6783 44.0397 48.9303L41.068 51.9283C40.9261 52.0725 40.7975 52.53 40.8415 52.734L41.6921 56.4401C42.3239 59.2036 41.2783 60.4459 40.6003 60.942C40.2383 61.206 39.6416 61.5016 38.7956 61.5016L38.7936 61.4996C38.0577 61.4996 37.1314 61.2741 36.0055 60.6041L32.4176 58.4596C32.2394 58.3538 31.7559 58.3584 31.568 58.4684L27.9919 60.6022C25.5842 62.042 24.0841 61.4302 23.404 60.9342C22.722 60.4382 21.6715 59.1939 22.3053 56.4361L23.1579 52.7223C23.2018 52.5285 23.0741 52.0689 22.9323 51.9264L19.9557 48.9244C18.7097 47.6684 18.2341 46.2038 18.6501 44.9098C19.0661 43.6199 20.298 42.7115 22.0319 42.4195L25.862 41.7799C26.0281 41.7477 26.3739 41.4896 26.4518 41.3336L28.57 37.066C29.384 35.4341 30.6337 34.4977 31.9997 34.4977H32.0055ZM31.9958 37.4977C31.9378 37.5057 31.6096 37.688 31.2536 38.4L29.1423 42.6559C28.6523 43.6638 27.4799 44.5438 26.362 44.7379L22.526 45.3805C21.7651 45.5083 21.5222 45.7712 21.5036 45.8297C21.4836 45.8897 21.5277 46.2521 22.0837 46.8121L25.0602 49.8141C25.9201 50.6801 26.3497 52.1825 26.0817 53.3844L25.2282 57.108C25.0424 57.9172 25.1155 58.3533 25.1755 58.4957C25.3275 58.5057 25.7558 58.442 26.4518 58.026L30.0417 55.8844C30.6156 55.5484 31.3136 55.3805 32.0055 55.3805V55.3824C32.6995 55.3824 33.3918 55.5504 33.9538 55.8844L37.5417 58.026C38.2357 58.438 38.6659 58.5097 38.8219 58.4977C38.8799 58.3494 38.9501 57.9114 38.7663 57.1061L37.9137 53.3942C37.6437 52.1842 38.0742 50.6821 38.9362 49.8141L41.9118 46.8121C42.4718 46.2501 42.5157 45.8917 42.4977 45.8317C42.4789 45.773 42.236 45.5082 41.4675 45.3805L37.6423 44.7399C36.5123 44.5479 35.3336 43.6681 34.8356 42.6461L32.7301 38.3981C32.7301 38.3981 32.7301 38.398 32.7301 38.3961C32.3821 37.6901 32.0578 37.5057 31.9958 37.4977ZM54.9391 34.9381C55.5251 34.3523 56.4752 34.3524 57.0612 34.9381C57.6472 35.5241 57.6472 36.4742 57.0612 37.0602L51.0612 43.0602C50.7693 43.3521 50.3855 43.5005 50.0016 43.5006H49.9997C49.6157 43.5006 49.2311 43.3542 48.9391 43.0602C48.3533 42.4742 48.3532 41.524 48.9391 40.9381L54.9391 34.9381ZM58.9391 18.9381C59.5251 18.3523 60.4752 18.3524 61.0612 18.9381C61.6472 19.5241 61.6472 20.4742 61.0612 21.0602L45.0612 37.0602C44.7693 37.3521 44.3855 37.5005 44.0016 37.5006H43.9997C43.6157 37.5006 43.2311 37.3542 42.9391 37.0602C42.3533 36.4742 42.3532 35.524 42.9391 34.9381L58.9391 18.9381ZM46.9391 18.9381C47.5251 18.3523 48.4752 18.3524 49.0612 18.9381C49.6472 19.5241 49.6472 20.4742 49.0612 21.0602L39.0612 31.0602C38.7693 31.3521 38.3855 31.5005 38.0016 31.5006H37.9997C37.6157 31.5006 37.2311 31.3542 36.9391 31.0602C36.3533 30.4742 36.3532 29.524 36.9391 28.9381L46.9391 18.9381Z" fill="url(#paint0_linear_633_25026)"/>
<defs>
<linearGradient id="paint0_linear_633_25026" x1="40.0018" y1="18.4988" x2="40.0018" y2="61.5016" gradientUnits="userSpaceOnUse">
<stop stop-color="#FE406F"/>
<stop offset="1" stop-color="#FD6B38"/>
</linearGradient>
</defs>
</svg>
