<svg width="48" height="48" viewBox="0 0 48 48" fill="none" xmlns="http://www.w3.org/2000/svg">
<path d="M8 26.0009C8 36.0009 15 41.0009 23.32 43.9009C23.7557 44.0485 24.2289 44.0415 24.66 43.8809C33 41.0009 40 36.0009 40 26.0009V12.0009C40 11.4705 39.7893 10.9618 39.4142 10.5867C39.0391 10.2116 38.5304 10.0009 38 10.0009C34 10.0009 29 7.6009 25.52 4.5609C25.0963 4.1989 24.5573 4 24 4C23.4427 4 22.9037 4.1989 22.48 4.5609C18.98 7.6209 14 10.0009 10 10.0009C9.46957 10.0009 8.96086 10.2116 8.58578 10.5867C8.21071 10.9618 8 11.4705 8 12.0009V26.0009Z" stroke="#282A50" stroke-width="4" stroke-linecap="round" stroke-linejoin="round"/>
</svg>
