<svg width="48" height="48" viewBox="0 0 48 48" fill="none" xmlns="http://www.w3.org/2000/svg">
<path d="M44 18.9991C44 16.7735 43.3248 14.6003 42.0637 12.7664C40.8027 10.9326 39.015 9.52442 36.9368 8.7279C34.8586 7.93138 32.5877 7.78399 30.424 8.30519C28.2603 8.82639 26.3056 9.99166 24.818 11.6471C24.7132 11.7591 24.5866 11.8484 24.4458 11.9095C24.3051 11.9706 24.1534 12.0021 24 12.0021C23.8466 12.0021 23.6949 11.9706 23.5542 11.9095C23.4134 11.8484 23.2868 11.7591 23.182 11.6471C21.6991 9.9809 19.744 8.80584 17.5767 8.27831C15.4095 7.75077 13.133 7.8958 11.0503 8.69407C8.96749 9.49234 7.17723 10.906 5.91777 12.7469C4.65831 14.5878 3.98937 16.7686 4 18.9991C4 23.5791 7 26.9991 10 29.9991L20.984 40.6251C21.3567 41.0531 21.8161 41.3969 22.3319 41.6337C22.8477 41.8705 23.4079 41.9948 23.9754 41.9984C24.5429 42.002 25.1047 41.8848 25.6234 41.6546C26.1421 41.4243 26.6059 41.0864 26.984 40.6631L38 29.9991C41 26.9991 44 23.5991 44 18.9991Z" stroke="#282A50" stroke-width="4" stroke-linecap="round" stroke-linejoin="round"/>
</svg>
