<svg width="48" height="48" viewBox="0 0 48 48" fill="none" xmlns="http://www.w3.org/2000/svg">
<path d="M44 19.0011C44 16.7755 43.3248 14.6022 42.0637 12.7684C40.8027 10.9345 39.015 9.52637 36.9368 8.72986C34.8586 7.93334 32.5877 7.78595 30.424 8.30715C28.2603 8.82834 26.3056 9.99362 24.818 11.6491C24.7132 11.7611 24.5866 11.8504 24.4458 11.9115C24.3051 11.9725 24.1534 12.004 24 12.004C23.8466 12.004 23.6949 11.9725 23.5542 11.9115C23.4134 11.8504 23.2868 11.7611 23.182 11.6491C21.6991 9.98286 19.744 8.80779 17.5767 8.28026C15.4095 7.75273 13.133 7.89775 11.0503 8.69602C8.96749 9.4943 7.17723 10.908 5.91777 12.7489C4.65831 14.5898 3.98937 16.7706 4 19.0011C4 23.5811 7 27.0011 10 30.0011L20.984 40.6271C21.3567 41.0551 21.8161 41.3989 22.3319 41.6357C22.8477 41.8724 23.4079 41.9968 23.9754 42.0003C24.5429 42.0039 25.1047 41.8867 25.6234 41.6565C26.1421 41.4263 26.6059 41.0883 26.984 40.6651L38 30.0011C41 27.0011 44 23.6011 44 19.0011Z" stroke="#FE406F" stroke-width="4" stroke-linecap="round" stroke-linejoin="round"/>
</svg>
