<svg width="16" height="16" viewBox="0 0 16 16" fill="none" xmlns="http://www.w3.org/2000/svg">
<path fill-rule="evenodd" clip-rule="evenodd" d="M6.05249 1.8585C7.36249 1.82516 8.63605 1.82516 9.94605 1.8585C12.1046 1.91316 13.2939 1.94402 14.1892 2.83799C15.0856 3.74128 15.1104 4.89928 15.155 7.00107C15.169 7.67223 15.169 8.32406 15.155 8.99521C15.1104 11.0972 15.0858 12.2553 14.1912 13.1573C13.2945 14.0531 12.1045 14.0831 9.94605 14.1378C9.29154 14.1545 8.64561 14.1632 7.99976 14.1632C7.35389 14.1632 6.708 14.1545 6.05347 14.1378C3.89502 14.0831 2.70561 14.052 1.8103 13.1583C0.913684 12.255 0.88817 11.097 0.843508 8.99521C0.829508 8.32388 0.829508 7.67143 0.843508 7.0001C0.888169 4.89838 0.912982 3.74091 1.80738 2.83896C2.70404 1.94297 3.89383 1.91316 6.05249 1.8585ZM9.92066 2.85654C8.62801 2.82321 7.37119 2.82321 6.07788 2.85654C4.05255 2.90788 3.12805 2.93138 2.51538 3.54404C1.90354 4.16134 1.88483 5.05759 1.84351 7.02061C1.82951 7.67727 1.82951 8.3164 1.84351 8.97373C1.88484 10.9369 1.90433 11.8333 2.51831 12.4513C3.12965 13.0618 4.05364 13.0865 6.07886 13.1378C7.37141 13.1711 8.62841 13.1711 9.92163 13.1378C11.9466 13.0865 12.8705 13.0629 13.4832 12.4503C14.0951 11.833 14.1147 10.9369 14.156 8.97373C14.17 8.31706 14.17 7.67794 14.156 7.02061C14.1147 5.05755 14.0951 4.16104 13.4812 3.54307C12.8699 2.93241 11.9459 2.90787 9.92066 2.85654ZM4.23609 5.40732C4.37667 5.17013 4.68338 5.09025 4.92066 5.23057L6.88257 6.39072C7.8638 6.96866 8.13541 6.96861 9.11792 6.39072L11.0789 5.23154C11.3167 5.09095 11.6233 5.1696 11.7634 5.40732C11.9041 5.64526 11.8255 5.95185 11.5876 6.09189L9.62671 7.25205C8.97277 7.63735 8.48638 7.83014 7.99976 7.83018C7.51381 7.83018 7.02799 7.63664 6.37476 7.25205L4.41187 6.09189C4.17484 5.95123 4.09575 5.64453 4.23609 5.40732Z" fill="#1A1A1A"/>
</svg>
