<svg width="48" height="48" viewBox="0 0 48 48" fill="none" xmlns="http://www.w3.org/2000/svg">
<path d="M17.0465 25.7812L14.0165 42.8333C13.9826 43.034 14.0107 43.2404 14.0972 43.4248C14.1838 43.6091 14.3245 43.7626 14.5006 43.8648C14.6768 43.967 14.8799 44.013 15.0829 43.9967C15.2859 43.9803 15.479 43.9024 15.6365 43.7732L22.7965 38.3992C23.1421 38.141 23.562 38.0015 23.9935 38.0015C24.425 38.0015 24.8448 38.141 25.1905 38.3992L32.3625 43.7712C32.5199 43.9001 32.7128 43.9779 32.9155 43.9943C33.1182 44.0107 33.3212 43.9649 33.4972 43.863C33.6732 43.7611 33.8139 43.6079 33.9007 43.4239C33.9874 43.2399 34.0159 43.0339 33.9825 42.8333L30.9545 25.7812" stroke="#FE406F" stroke-width="4" stroke-linecap="round" stroke-linejoin="round"/>
<path d="M24 28C17.3726 28 12 22.6274 12 16C12 9.37258 17.3726 4 24 4C30.6274 4 36 9.37258 36 16C36 22.6274 30.6274 28 24 28Z" stroke="#FE406F" stroke-width="4" stroke-linecap="round" stroke-linejoin="round"/>
</svg>
