<svg width="48" height="48" viewBox="0 0 48 48" fill="none" xmlns="http://www.w3.org/2000/svg">
<path d="M16 42V38C16 35.8783 16.8429 33.8434 18.3431 32.3431C19.8434 30.8429 21.8783 30 24 30H36C38.1217 30 40.1566 30.8429 41.6569 32.3431C43.1571 33.8434 44 35.8783 44 38V42" stroke="#FE406F" stroke-width="4" stroke-linecap="round" stroke-linejoin="round"/>
<path d="M16 6.25586C14.2845 6.7006 12.7652 7.70239 11.6806 9.10398C10.5961 10.5056 10.0076 12.2276 10.0076 13.9999C10.0076 15.7721 10.5961 17.4941 11.6806 18.8957C12.7652 20.2973 14.2845 21.2991 16 21.7439" stroke="#FE406F" stroke-width="4" stroke-linecap="round" stroke-linejoin="round"/>
<path d="M4 41.9998V37.9998C4.00132 36.2272 4.59129 34.5053 5.67727 33.1044C6.76325 31.7035 8.28374 30.7029 10 30.2598" stroke="#FE406F" stroke-width="4" stroke-linecap="round" stroke-linejoin="round"/>
<path d="M30 22C25.5817 22 22 18.4183 22 14C22 9.58172 25.5817 6 30 6C34.4183 6 38 9.58172 38 14C38 18.4183 34.4183 22 30 22Z" stroke="#FE406F" stroke-width="4" stroke-linecap="round" stroke-linejoin="round"/>
</svg>
