<svg width="48" height="48" viewBox="0 0 48 48" fill="none" xmlns="http://www.w3.org/2000/svg">
<path d="M25.9651 5.62693C25.8794 5.16814 25.636 4.75376 25.2769 4.45557C24.9179 4.15737 24.4658 3.99414 23.9991 3.99414C23.5324 3.99414 23.0804 4.15737 22.7213 4.45557C22.3623 4.75376 22.1188 5.16814 22.0331 5.62693L19.9311 16.7429C19.7818 17.5332 19.3978 18.2602 18.8291 18.8289C18.2604 19.3976 17.5334 19.7816 16.7431 19.9309L5.62712 22.0329C5.16832 22.1186 4.75395 22.3621 4.45576 22.7211C4.15756 23.0802 3.99433 23.5322 3.99433 23.9989C3.99433 24.4657 4.15756 24.9177 4.45576 25.2767C4.75395 25.6358 5.16832 25.8792 5.62712 25.9649L16.7431 28.0669C17.5334 28.2162 18.2604 28.6003 18.8291 29.169C19.3978 29.7377 19.7818 30.4646 19.9311 31.2549L22.0331 42.3709C22.1188 42.8297 22.3623 43.2441 22.7213 43.5423C23.0804 43.8405 23.5324 44.0037 23.9991 44.0037C24.4658 44.0037 24.9179 43.8405 25.2769 43.5423C25.636 43.2441 25.8794 42.8297 25.9651 42.3709L28.0671 31.2549C28.2164 30.4646 28.6005 29.7377 29.1692 29.169C29.7379 28.6003 30.4648 28.2162 31.2551 28.0669L42.3711 25.9649C42.8299 25.8792 43.2443 25.6358 43.5425 25.2767C43.8407 24.9177 44.0039 24.4657 44.0039 23.9989C44.0039 23.5322 43.8407 23.0802 43.5425 22.7211C43.2443 22.3621 42.8299 22.1186 42.3711 22.0329L31.2551 19.9309C30.4648 19.7816 29.7379 19.3976 29.1692 18.8289C28.6005 18.2602 28.2164 17.5332 28.0671 16.7429L25.9651 5.62693Z" stroke="#282A50" stroke-width="4" stroke-linecap="round" stroke-linejoin="round"/>
<path d="M8 4V12" stroke="#282A50" stroke-width="4" stroke-linecap="round" stroke-linejoin="round"/>
<path d="M4 8H12" stroke="#282A50" stroke-width="4" stroke-linecap="round" stroke-linejoin="round"/>
<path d="M40 44C37.7909 44 36 42.2091 36 40C36 37.7909 37.7909 36 40 36C42.2091 36 44 37.7909 44 40C44 42.2091 42.2091 44 40 44Z" stroke="#282A50" stroke-width="4" stroke-linecap="round" stroke-linejoin="round"/>
</svg>
