<svg width="48" height="48" viewBox="0 0 48 48" fill="none" xmlns="http://www.w3.org/2000/svg">
<path d="M24.9503 4.58979C24.8627 4.41271 24.7273 4.26365 24.5594 4.15944C24.3915 4.05522 24.1979 4 24.0003 4C23.8027 4 23.6091 4.05522 23.4412 4.15944C23.2733 4.26365 23.138 4.41271 23.0503 4.58979L18.4303 13.9478C18.126 14.5637 17.6767 15.0966 17.1211 15.5007C16.5654 15.9048 15.9201 16.168 15.2403 16.2678L4.90831 17.7798C4.71254 17.8082 4.52861 17.8907 4.37733 18.0182C4.22605 18.1456 4.11345 18.3129 4.05227 18.501C3.99109 18.6891 3.98377 18.8906 4.03114 19.0827C4.0785 19.2747 4.17867 19.4497 4.3203 19.5878L11.7923 26.8638C12.2851 27.344 12.6538 27.9368 12.8666 28.591C13.0795 29.2453 13.1302 29.9416 13.0143 30.6198L11.2503 40.8998C11.2157 41.0955 11.2369 41.2969 11.3113 41.4812C11.3857 41.6654 11.5104 41.825 11.6712 41.9418C11.832 42.0586 12.0223 42.1278 12.2206 42.1416C12.4188 42.1554 12.6169 42.1132 12.7923 42.0198L22.0283 37.1638C22.6369 36.8442 23.3139 36.6773 24.0013 36.6773C24.6887 36.6773 25.3657 36.8442 25.9743 37.1638L35.2083 42.0198C35.3836 42.1126 35.5815 42.1544 35.7794 42.1403C35.9773 42.1262 36.1673 42.0569 36.3277 41.9402C36.4882 41.8235 36.6126 41.6642 36.687 41.4802C36.7613 41.2963 36.7826 41.0952 36.7483 40.8998L34.9863 30.6218C34.8699 29.9433 34.9203 29.2466 35.1332 28.5919C35.3461 27.9372 35.7151 27.3441 36.2083 26.8638L43.6803 19.5898C43.8231 19.4519 43.9243 19.2766 43.9724 19.0839C44.0204 18.8913 44.0134 18.689 43.9521 18.5002C43.8909 18.3113 43.7778 18.1435 43.6258 18.0158C43.4737 17.888 43.2889 17.8056 43.0923 17.7778L32.7623 16.2678C32.0818 16.1688 31.4355 15.9059 30.8791 15.5018C30.3227 15.0976 29.8729 14.5643 29.5683 13.9478L24.9503 4.58979Z" stroke="#FE406F" stroke-width="4" stroke-linecap="round" stroke-linejoin="round"/>
</svg>
