<svg width="48" height="48" viewBox="0 0 48 48" fill="none" xmlns="http://www.w3.org/2000/svg">
<path d="M24 44C12.9543 44 4 35.0457 4 24C4 12.9543 12.9543 4 24 4C35.0457 4 44 12.9543 44 24C44 35.0457 35.0457 44 24 44Z" stroke="#282A50" stroke-width="4" stroke-linecap="round" stroke-linejoin="round"/>
<path d="M24 36C17.3726 36 12 30.6274 12 24C12 17.3726 17.3726 12 24 12C30.6274 12 36 17.3726 36 24C36 30.6274 30.6274 36 24 36Z" stroke="#282A50" stroke-width="4" stroke-linecap="round" stroke-linejoin="round"/>
<path d="M24 28C21.7909 28 20 26.2091 20 24C20 21.7909 21.7909 20 24 20C26.2091 20 28 21.7909 28 24C28 26.2091 26.2091 28 24 28Z" stroke="#282A50" stroke-width="4" stroke-linecap="round" stroke-linejoin="round"/>
</svg>
