<svg width="28" height="28" viewBox="0 0 28 28" fill="none" xmlns="http://www.w3.org/2000/svg">
<path fill-rule="evenodd" clip-rule="evenodd" d="M20.9307 22.4609C21.864 22.502 22.6222 23.1314 23.1289 23.582C23.2806 23.7169 23.3983 23.8254 23.5088 23.9277C23.6345 24.0441 23.7513 24.1522 23.8994 24.2813C24.1414 24.4919 24.3329 24.6343 24.4942 24.7178C24.6481 24.7975 24.7166 24.7933 24.7383 24.79C24.7546 24.7876 24.8513 24.7716 25.0283 24.583C25.359 24.2306 25.9132 24.2133 26.2656 24.5439C26.6178 24.8746 26.6353 25.428 26.3047 25.7803C25.9363 26.1728 25.5018 26.4462 24.9951 26.5215C24.494 26.5958 24.0476 26.4578 23.6895 26.2725C23.3387 26.0909 23.0209 25.8365 22.75 25.6006C22.6143 25.4823 22.4398 25.3222 22.2783 25.1738C22.1612 25.0661 22.0504 24.9648 21.9658 24.8896C21.4215 24.4055 21.0917 24.2194 20.8535 24.209C20.7298 24.2036 20.3472 24.2413 19.7178 25.2041L19.7129 25.2109C19.3917 25.6919 19.0069 26.0734 18.5274 26.2734C18.0253 26.4827 17.535 26.446 17.1133 26.3037C16.7147 26.1692 16.3574 25.9352 16.0606 25.7139C15.848 25.5553 15.6243 25.3695 15.4199 25.2002C15.3429 25.1364 15.2683 25.0746 15.1983 25.0176C14.6057 24.5347 14.2219 24.3031 13.9141 24.2813C13.7431 24.2692 13.3417 24.3097 12.7158 25.252C12.4181 25.7076 12.042 26.0691 11.5576 26.2451C11.0642 26.4244 10.5888 26.3641 10.1924 26.2275C9.80974 26.0957 9.45484 25.8771 9.15139 25.668C8.95222 25.5307 8.73669 25.3699 8.53615 25.2197C8.43898 25.147 8.34455 25.0763 8.25783 25.0127C7.64448 24.5631 7.22013 24.3285 6.876 24.3076C6.66758 24.2951 6.27622 24.3499 5.71779 25.2041L5.71291 25.2109C5.22837 25.9365 4.53339 26.5204 3.65236 26.5205C2.76766 26.5205 2.07632 25.9329 1.60061 25.2031C1.33676 24.7983 1.45069 24.2561 1.85549 23.9922C2.26031 23.7283 2.80253 23.8432 3.06643 24.248C3.39006 24.7444 3.61576 24.7705 3.65236 24.7705C3.69327 24.7704 3.92356 24.7394 4.25588 24.2432C5.01339 23.0862 5.92222 22.4967 6.98147 22.5605C7.90595 22.6164 8.71822 23.1802 9.29299 23.6016C9.41261 23.6893 9.5222 23.7708 9.626 23.8486C9.80713 23.9844 9.97156 24.1083 10.1446 24.2275C10.4089 24.4097 10.6078 24.5199 10.7627 24.5732C10.9021 24.6212 10.9494 24.6035 10.96 24.5996C10.9782 24.5929 11.0859 24.5477 11.252 24.293L11.2559 24.2871C12.0463 23.0957 12.9631 22.46 14.0381 22.5361C14.9761 22.6027 15.7666 23.2234 16.3037 23.6611C16.3996 23.7392 16.4892 23.8133 16.5742 23.8838C16.7634 24.0405 16.9318 24.1803 17.1065 24.3105C17.3557 24.4964 17.5372 24.5997 17.6729 24.6455C17.7855 24.6835 17.8261 24.6696 17.8535 24.6582C17.9031 24.6375 18.0469 24.5552 18.2559 24.2432C19.0117 23.0884 19.8838 22.4151 20.9307 22.4609ZM10.5 1.45801C11.6276 1.45801 12.542 2.37242 12.542 3.5L12.542 6.125H14.0908C15.7742 6.12512 17.3664 6.89061 18.418 8.20508L21.4199 11.958H24.335C24.9187 11.9581 25.4782 12.1006 25.9053 12.4814C26.3399 12.869 26.5087 13.3883 26.5371 13.876C26.5906 14.7928 26.1723 15.8524 25.6533 16.7656C25.1151 17.7127 24.3787 18.6593 23.6055 19.3799C23.2185 19.7405 22.8041 20.0608 22.3838 20.2959C21.973 20.5257 21.4947 20.708 20.9961 20.708C20.5129 20.708 20.1211 20.3163 20.1211 19.833C20.1213 19.3499 20.513 18.958 20.9961 18.958C21.0801 18.958 21.2557 18.9215 21.5293 18.7686C21.7935 18.6208 22.095 18.3952 22.4121 18.0996C23.0472 17.5078 23.6756 16.704 24.1319 15.9014C24.6072 15.0649 24.813 14.3743 24.7901 13.9785C24.7851 13.8932 24.7703 13.8425 24.7598 13.8174C24.7509 13.7963 24.7444 13.7899 24.7412 13.7871C24.7387 13.7849 24.6525 13.7081 24.335 13.708L3.53811 13.708C3.48369 13.7081 3.38622 13.7369 3.29787 13.8887C3.20899 14.0414 3.17538 14.2574 3.24807 14.4688L4.99514 19.5488C5.15227 20.0058 4.90914 20.504 4.45217 20.6611C3.99528 20.8181 3.49704 20.575 3.33986 20.1182L1.59279 15.0381C1.34922 14.3298 1.44909 13.5852 1.78518 13.0078C2.12172 12.4298 2.74115 11.9581 3.53811 11.958L6.12502 11.958L6.12502 9.33301C6.1252 7.56135 7.56138 6.12518 9.33303 6.125L10.792 6.125L10.792 3.5C10.792 3.33892 10.6611 3.20801 10.5 3.20801L9.33303 3.20801C8.84993 3.20783 8.45803 2.81615 8.45803 2.33301C8.4582 1.85002 8.85004 1.45819 9.33303 1.45801L10.5 1.45801ZM9.33303 7.875C8.52787 7.87518 7.8752 8.52785 7.87502 9.33301L7.87502 11.958L19.1787 11.958L17.0508 9.29785C16.3313 8.39871 15.2424 7.87512 14.0908 7.875L9.33303 7.875Z" fill="white"/>
</svg>
