<svg width="32" height="32" viewBox="0 0 32 32" fill="none" xmlns="http://www.w3.org/2000/svg">
<rect width="32" height="32" rx="16" fill="#EAEAEE"/>
<path fill-rule="evenodd" clip-rule="evenodd" d="M20.9501 22.043C21.6168 22.0722 22.1584 22.5218 22.5204 22.8438C22.6288 22.9401 22.713 23.0177 22.7919 23.0908C22.8817 23.174 22.9654 23.2516 23.0712 23.3438C23.244 23.4942 23.3809 23.5957 23.496 23.6553C23.6053 23.7119 23.654 23.7093 23.6698 23.707C23.6815 23.7053 23.7513 23.6944 23.8778 23.5596C24.114 23.3079 24.5089 23.2952 24.7607 23.5313C25.0123 23.7674 25.025 24.1623 24.789 24.4141C24.5259 24.6945 24.2154 24.8896 23.8534 24.9434C23.4955 24.9964 23.1766 24.898 22.9208 24.7656C22.6704 24.6359 22.4433 24.4546 22.2499 24.2861C22.1529 24.2017 22.0283 24.0874 21.913 23.9814C21.8292 23.9044 21.7498 23.8321 21.6894 23.7783C21.3006 23.4326 21.0655 23.2995 20.8954 23.292C20.8071 23.2881 20.5336 23.3149 20.0839 24.0029L20.081 24.0078C19.8515 24.3515 19.576 24.6238 19.2333 24.7666C18.8747 24.9161 18.5248 24.8897 18.2235 24.7881C17.9389 24.692 17.6835 24.5252 17.4716 24.3672C17.3197 24.2539 17.1605 24.1209 17.0146 24C16.9596 23.9545 16.9063 23.9108 16.8564 23.8701C16.433 23.5251 16.1583 23.3593 15.9384 23.3438C15.8161 23.3352 15.5297 23.3644 15.0829 24.0371C14.8704 24.3624 14.6016 24.6203 14.2558 24.7461C13.9033 24.8742 13.5633 24.8319 13.2802 24.7344C13.0068 24.6402 12.7528 24.4834 12.536 24.334C12.3938 24.236 12.2398 24.1208 12.0966 24.0137C12.0273 23.9618 11.9602 23.9116 11.8983 23.8662C11.4601 23.545 11.1569 23.3771 10.911 23.3623C10.7621 23.3534 10.4827 23.3929 10.0839 24.0029L10.081 24.0078C9.73482 24.5261 9.23772 24.9434 8.60831 24.9434C7.97648 24.9433 7.48322 24.5231 7.14347 24.002C6.95513 23.7129 7.0362 23.3262 7.32511 23.1377C7.61419 22.9492 8.00178 23.0304 8.19034 23.3193C8.42097 23.6731 8.58152 23.6933 8.60831 23.6934C8.63692 23.6934 8.80197 23.6718 9.03995 23.3164C9.58099 22.4901 10.2297 22.0697 10.9862 22.1152C11.6467 22.155 12.227 22.5574 12.6376 22.8584C12.7231 22.9211 12.8017 22.9796 12.8759 23.0352C13.0051 23.132 13.1226 23.2196 13.246 23.3047C13.435 23.4349 13.5767 23.5146 13.6874 23.5527C13.787 23.587 13.8205 23.5741 13.828 23.5713C13.8406 23.5667 13.9181 23.5349 14.037 23.3525L14.04 23.3477C14.6045 22.4968 15.2594 22.0423 16.0273 22.0967C16.6973 22.1442 17.2618 22.5887 17.6454 22.9014C17.7138 22.9571 17.7781 23.0093 17.8388 23.0596C17.974 23.1716 18.0938 23.2721 18.2187 23.3652C18.3968 23.4981 18.527 23.5718 18.6239 23.6045C18.7041 23.6315 18.7333 23.6214 18.7528 23.6133C18.7884 23.5984 18.8909 23.5389 19.04 23.3164C19.5798 22.4916 20.2024 22.0102 20.9501 22.043ZM13.4999 7.04199C14.3053 7.04199 14.9579 7.69458 14.9579 8.5V10.375H16.0644C17.2667 10.375 18.404 10.9215 19.1552 11.8604L21.3007 14.542H23.3817C23.7988 14.542 24.1987 14.643 24.5038 14.915C24.8142 15.1918 24.9346 15.5629 24.955 15.9111C24.9932 16.566 24.6948 17.3233 24.3241 17.9756C23.9396 18.6522 23.4126 19.3281 22.8603 19.8428C22.5839 20.1003 22.2883 20.3292 21.9882 20.4971C21.6947 20.6612 21.3531 20.792 20.997 20.792C20.652 20.7919 20.3722 20.512 20.372 20.167C20.372 19.8219 20.6519 19.5421 20.997 19.542C21.057 19.542 21.1825 19.5154 21.3778 19.4063C21.5665 19.3007 21.7821 19.1389 22.0087 18.9277C22.4623 18.505 22.9114 17.9307 23.2372 17.3574C23.5767 16.7599 23.7234 16.267 23.7069 15.9844C23.7034 15.9238 23.693 15.8882 23.6855 15.8701C23.679 15.8546 23.674 15.8496 23.6718 15.8477C23.6674 15.8438 23.6037 15.792 23.3817 15.792L8.52726 15.792C8.4884 15.792 8.41855 15.8124 8.35538 15.9209C8.29205 16.0299 8.26836 16.1842 8.32022 16.335L9.56827 19.9639C9.68011 20.29 9.50657 20.6455 9.18058 20.7578C8.8542 20.8701 8.49795 20.6965 8.38565 20.3701L7.13761 16.7412C6.96374 16.2355 7.03537 15.7043 7.2753 15.292C7.51568 14.879 7.95786 14.542 8.52726 14.542H10.3749V12.667C10.3749 11.4013 11.4013 10.375 12.6669 10.375H13.7079V8.5C13.7079 8.38494 13.615 8.29199 13.4999 8.29199H12.6669C12.3218 8.29199 12.0421 8.01202 12.0419 7.66699C12.0419 7.32181 12.3217 7.04199 12.6669 7.04199H13.4999ZM12.6669 11.625C12.0916 11.625 11.6249 12.0917 11.6249 12.667V14.542L19.7001 14.542L18.1796 12.6416C17.6656 11.9991 16.8871 11.625 16.0644 11.625H12.6669Z" fill="url(#paint0_linear_633_22119)"/>
<defs>
<linearGradient id="paint0_linear_633_22119" x1="15.9999" y1="7.04199" x2="15.9999" y2="24.958" gradientUnits="userSpaceOnUse">
<stop stop-color="#FE406F"/>
<stop offset="1" stop-color="#FD6B38"/>
</linearGradient>
</defs>
</svg>
