<svg width="18" height="18" viewBox="0 0 18 18" fill="none" xmlns="http://www.w3.org/2000/svg">
<path d="M2.86499 1.41406C3.19802 1.14442 3.57956 1.04258 3.94116 1.11133C4.25882 1.17221 4.54089 1.35987 4.74585 1.6543L4.82886 1.78711L5.48413 2.96582L5.48608 2.96875C6.04993 3.97958 6.32438 4.48437 6.26147 5.09863C6.19849 5.70381 5.83787 6.12996 5.10229 6.98145L5.09839 6.98633L3.40991 8.92188L3.33765 9.00488L3.39526 9.09863C4.7321 11.2916 6.70669 13.2658 8.90112 14.6035L8.99487 14.6611L9.07788 14.5889L10.9744 12.9424V12.9414H10.9753C11.815 12.2052 12.2773 11.8069 12.9011 11.7402L12.9001 11.7393C13.5269 11.6747 14.062 11.9694 15.0378 12.5186L15.0388 12.5195L16.2107 13.1699C16.5877 13.3819 16.8235 13.7012 16.8923 14.0664C16.9603 14.4269 16.8571 14.8061 16.5876 15.1348H16.5867C15.6683 16.2631 14.3716 16.8993 13.0681 16.9092H13.0359C12.7697 16.9092 12.5026 16.8826 12.238 16.8291H12.2371C11.0511 16.5948 10.0026 16.1931 8.83569 15.5225C6.26544 14.0492 3.94606 11.7301 2.47437 9.16211C1.80971 8.00564 1.40681 6.95754 1.16577 5.75977C0.870053 4.29453 1.41826 2.73806 2.61694 1.62988L2.86499 1.41406ZM12.9861 12.5605C12.79 12.5815 12.6012 12.681 12.3796 12.8418C12.1571 13.0034 11.8821 13.2413 11.5154 13.5625L9.92847 14.9414L9.62573 15.2051H9.9939C10.7931 15.5962 11.56 15.8554 12.4001 16.0215V16.0205C13.6797 16.2798 15.035 15.7316 15.946 14.6123L15.947 14.6133C15.9806 14.5723 16.0195 14.5168 16.0476 14.4531C16.0755 14.3899 16.0967 14.308 16.0798 14.2188H16.0808C16.054 14.0752 15.9359 13.9621 15.8074 13.8896H15.8064L14.6335 13.2383H14.6326C14.219 13.0052 13.9018 12.8276 13.6482 12.7139C13.459 12.629 13.2921 12.5732 13.1375 12.5596L12.9861 12.5605ZM7.41577 2.7168C9.58459 0.549761 13.1131 0.549835 15.282 2.7168C16.3323 3.76714 16.9118 5.164 16.9119 6.65039C16.9119 8.1368 16.3349 9.52952 15.2869 10.5791L15.2849 10.5811C15.2018 10.6671 15.1195 10.7422 15.0466 10.8076V10.8086C14.9713 10.8765 14.8772 10.9102 14.783 10.9131H14.7703C14.6856 10.913 14.6012 10.8868 14.53 10.8359L14.4636 10.7764C14.3114 10.607 14.3249 10.3467 14.4939 10.1943H14.4949C14.5706 10.1261 14.6307 10.0685 14.6902 10.0068L14.6912 10.0078L14.699 9.99902H14.7C15.5943 9.10537 16.0867 7.91457 16.0867 6.64941C16.0866 5.38435 15.5942 4.1941 14.7 3.2998C12.8541 1.45476 9.85073 1.45405 8.00269 3.2959L8.00073 3.29883C7.93652 3.3661 7.87311 3.43367 7.80737 3.50781C7.65518 3.67783 7.39488 3.69287 7.22534 3.54199C7.07687 3.4097 7.04623 3.1936 7.14233 3.02734L7.19116 2.95996C7.26558 2.8767 7.3351 2.79946 7.40698 2.72461L7.40796 2.72559L7.41577 2.7168ZM8.99878 4.83789H9.64136C10.0308 4.83789 10.2671 4.84369 10.4744 5.04102C10.6901 5.2484 10.696 5.49649 10.696 5.87305C10.696 6.56304 10.6885 6.93692 10.3875 7.2373L10.3845 7.24023H10.3835L10.3787 7.24512C10.1546 7.45644 9.86156 7.51547 9.55249 7.53223L9.40991 7.54004V8.58789H10.283C10.5106 8.58789 10.6959 8.77243 10.696 9C10.696 9.22766 10.5106 9.41309 10.283 9.41309H9.64136C9.25068 9.41309 9.01382 9.40661 8.80737 9.20801V9.20703L8.73608 9.12891C8.59095 8.93943 8.5857 8.70817 8.58569 8.37793V7.5C8.5857 7.26358 8.59078 7.06443 8.75659 6.89746L8.75854 6.89551C8.92752 6.71903 9.13353 6.7129 9.37769 6.71289H9.38062C9.57235 6.70907 9.67546 6.69464 9.73315 6.67969L9.82007 6.65723L9.84155 6.56934C9.85874 6.49617 9.8647 6.38012 9.86792 6.26367C9.87127 6.14216 9.87183 6.00216 9.87183 5.87305V5.66309H8.99878C8.77112 5.66309 8.58569 5.47766 8.58569 5.25C8.58579 5.02243 8.77118 4.83789 8.99878 4.83789ZM13.4988 4.83789C13.7262 4.83806 13.9108 5.02253 13.9109 5.25V9C13.9109 9.22756 13.7263 9.41292 13.4988 9.41309C13.2711 9.41309 13.0857 9.22766 13.0857 9V7.53809H12.406C12.0908 7.53809 11.8649 7.53178 11.6755 7.3418L11.6746 7.34082C11.4845 7.15296 11.4783 6.93205 11.4783 6.62305V5.25C11.4784 5.02243 11.6638 4.83789 11.8914 4.83789C12.1189 4.83797 12.3034 5.02248 12.3035 5.25V6.71289H13.0857V5.25C13.0858 5.02243 13.2712 4.83789 13.4988 4.83789ZM3.71948 1.91406C3.6399 1.91416 3.56879 1.94073 3.51538 1.96777C3.48814 1.98158 3.46318 1.99681 3.44116 2.01172L3.38452 2.05371C2.26584 2.96464 1.71645 4.32053 1.97437 5.59668C2.1472 6.45387 2.41221 7.23168 2.80933 8.03809L2.90894 8.24023L3.0564 8.07031L4.47241 6.44629H4.47339C4.79161 6.07808 5.02173 5.8093 5.17554 5.59473C5.32933 5.38015 5.42031 5.20101 5.44019 5.0127C5.46 4.82047 5.40514 4.62227 5.29468 4.37402C5.18406 4.12544 5.00727 3.80509 4.76245 3.36621L4.10718 2.18848L4.04663 2.09668C3.97941 2.01021 3.89193 1.94183 3.78589 1.9209H3.78394C3.76551 1.91746 3.74298 1.91406 3.71948 1.91406Z" fill="#000619" stroke="#000619" stroke-width="0.3"/>
</svg>
