<svg width="17" height="17" viewBox="0 0 17 17" fill="none" xmlns="http://www.w3.org/2000/svg">
<path d="M0 8.0625C3.9462e-07 3.60971 3.60971 0 8.0625 0C12.5153 3.9462e-07 16.125 3.60971 16.125 8.0625C16.125 12.5153 12.5153 16.125 8.0625 16.125C3.60971 16.125 0 12.5153 0 8.0625ZM1.125 8.0625C1.125 11.894 4.23103 15 8.0625 15C11.894 15 15 11.894 15 8.0625C15 4.23103 11.894 1.125 8.0625 1.125C4.23103 1.125 1.125 4.23103 1.125 8.0625ZM4.5 8.0625C4.5 7.75184 4.75184 7.5 5.0625 7.5H7.8291L9.16504 6.16504C9.38471 5.94537 9.74029 5.94537 9.95996 6.16504C10.1796 6.38471 10.1796 6.74029 9.95996 6.95996L8.45996 8.45996C8.35447 8.56545 8.21168 8.625 8.0625 8.625H5.0625C4.75184 8.625 4.5 8.37316 4.5 8.0625Z" fill="#8E8E93"/>
</svg>
