<svg width="56" height="56" viewBox="0 0 56 56" fill="none" xmlns="http://www.w3.org/2000/svg">
<circle cx="28" cy="28" r="28" fill="#067647"/>
<path fill-rule="evenodd" clip-rule="evenodd" d="M40.0703 19.474C40.7289 19.1447 41.53 19.412 41.8593 20.0707C42.1886 20.7292 41.9221 21.5303 41.2636 21.8597C38.2055 23.3888 34.8587 26.8536 32.1982 30.096C30.8893 31.6913 29.7826 33.1862 29.0039 34.2826C28.6148 34.8303 28.3088 35.2777 28.1005 35.5863C27.9965 35.7405 27.9162 35.8596 27.8632 35.9398L27.8046 36.0306L27.79 36.0521L27.7871 36.057C27.5431 36.4339 27.1247 36.6643 26.6757 36.6673C26.227 36.6703 25.8066 36.4469 25.5576 36.0736C24.2847 34.1642 23.1952 33.034 22.4599 32.3968C22.0921 32.0781 21.8117 31.881 21.6386 31.7708C21.552 31.7157 21.4916 31.6819 21.4609 31.6654C21.4503 31.6597 21.4429 31.6564 21.4394 31.6546C20.78 31.3492 20.486 30.5691 20.7822 29.9027C21.0814 29.2301 21.8692 28.9269 22.542 29.2259C22.6492 29.2787 22.9051 29.4117 23.0703 29.5208C23.3555 29.7024 23.7416 29.9779 24.207 30.3812C24.8764 30.9614 25.7076 31.8041 26.6396 33.0082C26.7008 32.9212 26.7643 32.8312 26.83 32.7386C27.6346 31.6059 28.7789 30.0594 30.1367 28.4046C32.8094 25.1472 36.4619 21.2782 40.0703 19.474ZM14.1152 29.9027C14.4143 29.2301 15.2022 28.9271 15.875 29.2259C15.9653 29.267 16.1975 29.3838 16.4033 29.5208C16.6885 29.7023 17.0747 29.978 17.54 30.3812C18.2275 30.9771 19.086 31.85 20.0488 33.1068C20.4691 32.8839 20.9954 32.8933 21.4179 33.1771C22.0291 33.5878 22.1918 34.4165 21.7812 35.0277C21.5681 35.3448 21.4063 35.5955 21.2998 35.765C21.2465 35.8497 21.2072 35.9145 21.1816 35.9564L21.1543 36.0023L21.1484 36.0121C20.9148 36.4063 20.4941 36.6541 20.0361 36.6664C19.5779 36.6785 19.1449 36.4549 18.8906 36.0736C17.6178 34.1644 16.5291 33.0341 15.7939 32.3968C15.426 32.078 15.1447 31.881 14.9716 31.7708C14.8852 31.7158 14.8256 31.6818 14.7949 31.6654C14.7843 31.6597 14.777 31.6565 14.7734 31.6546C14.1138 31.3493 13.819 30.5692 14.1152 29.9027ZM33.4043 19.474C34.0628 19.1449 34.8641 19.4121 35.1933 20.0707C35.5225 20.7293 35.2552 21.5304 34.5966 21.8597C31.9507 23.1827 29.0722 25.9666 26.5976 28.8294C26.1161 29.3865 25.2739 29.4476 24.7168 28.9662C24.1597 28.4846 24.0985 27.6424 24.58 27.0853C27.0898 24.1818 30.2567 21.0477 33.4043 19.474Z" fill="white"/>
</svg>
