<svg width="24" height="24" viewBox="0 0 24 24" fill="none" xmlns="http://www.w3.org/2000/svg">
<path d="M1.25 12C1.25 17.9371 6.06294 22.75 12 22.75C17.9371 22.75 22.75 17.9371 22.75 12C22.75 6.06294 17.9371 1.25 12 1.25C6.06294 1.25 1.25 6.06294 1.25 12ZM14.4932 20.9062C14.4807 20.7524 14.4856 20.6126 14.502 20.4844C14.5444 20.1508 14.6675 19.8452 14.8408 19.5088C14.8854 19.4222 14.9402 19.3223 14.999 19.2148C15.138 18.9609 15.3012 18.663 15.4121 18.3936C15.5906 17.9598 15.7113 17.4473 15.5928 16.8545C15.2388 15.0843 15.3109 14.1499 15.5254 13.6855C15.6178 13.4856 15.7357 13.3758 15.8809 13.3037C16.0437 13.2229 16.2858 13.168 16.6445 13.168C16.6784 13.168 16.7122 13.168 16.7451 13.168C17.4999 13.1682 18.0132 13.1692 18.4766 13.0537C18.954 12.9346 19.3605 12.6972 19.9258 12.3682C19.9507 12.3536 19.9764 12.3391 20.002 12.3242C20.3721 12.109 20.6333 12.0351 20.8164 12.0449C20.9212 12.0506 21.0638 12.0869 21.2432 12.2676C21.1259 16.3941 18.3081 19.8406 14.4932 20.9062ZM3.23828 14.9658C4.12949 14.8712 4.97666 14.349 5.36035 13.3809C5.49235 13.0477 5.61924 12.9348 5.69336 12.8857C5.78473 12.8252 5.8992 12.7906 6.14844 12.7451C6.16988 12.7412 6.19319 12.7367 6.21777 12.7324C6.43815 12.6937 6.77704 12.6345 7.09961 12.4746C7.49607 12.2781 7.83503 11.9568 8.09961 11.4561C8.82528 10.0825 8.52312 8.22792 6.76367 6.5625C6.70699 6.50886 6.65344 6.45821 6.60352 6.41113C6.25211 6.07977 6.06051 5.89904 5.92969 5.70801C5.83971 5.57651 5.77877 5.43273 5.75977 5.17188C7.4048 3.66764 9.59524 2.75 12 2.75C16.6237 2.75 20.4539 6.14261 21.1396 10.5742C21.0604 10.5604 20.9795 10.5523 20.8975 10.5479C20.279 10.5146 19.7086 10.7595 19.248 11.0273C18.5767 11.4178 18.3595 11.5363 18.1133 11.5977C17.8518 11.6628 17.5374 11.668 16.6445 11.668C16.1524 11.668 15.6563 11.7406 15.2129 11.9609C14.7517 12.1902 14.3949 12.5572 14.1641 13.0566C13.7324 13.991 13.762 15.348 14.1221 17.1484C14.164 17.358 14.1337 17.56 14.0254 17.8232C13.9451 18.0183 13.8526 18.1849 13.7393 18.3906C13.6707 18.515 13.5942 18.6537 13.5078 18.8213C13.3019 19.221 13.0884 19.7081 13.0137 20.2949C12.9774 20.5803 12.976 20.8787 13.0156 21.1924C12.682 21.2288 12.3433 21.25 12 21.25C7.92901 21.25 4.47457 18.6193 3.23828 14.9658ZM2.75 12C2.75 9.90914 3.44443 7.98084 4.61426 6.43164C4.63935 6.47306 4.66448 6.51491 4.69238 6.55566C4.92227 6.89137 5.24957 7.19884 5.5791 7.50781C5.63014 7.55567 5.68163 7.6033 5.73242 7.65137C7.14102 8.98451 7.10382 10.1293 6.77344 10.7549C6.64194 11.0038 6.52226 11.0869 6.43359 11.1309C6.31297 11.1906 6.18513 11.2143 5.91895 11.2627C5.90626 11.265 5.89321 11.2671 5.87988 11.2695C5.62236 11.3165 5.23526 11.3898 4.86523 11.6348C4.47788 11.8913 4.18244 12.2814 3.96582 12.8281C3.79362 13.2627 3.34028 13.5118 2.87012 13.4854C2.79203 13.0017 2.75 12.5057 2.75 12Z" fill="white"/>
</svg>
