<svg width="32" height="32" viewBox="0 0 32 32" fill="none" xmlns="http://www.w3.org/2000/svg">
<path d="M16 7.0625H15.9478C14.0475 7.06249 12.5512 7.06248 11.3821 7.21965C10.1826 7.38093 9.22517 7.71893 8.47205 8.47205C7.71893 9.22517 7.38093 10.1826 7.21965 11.3821C7.06248 12.5512 7.06249 14.0475 7.0625 15.9478V16.0522C7.06249 17.9525 7.06248 19.4488 7.21965 20.6179C7.38093 21.8174 7.71893 22.7748 8.47205 23.528C9.22517 24.2811 10.1826 24.6191 11.3821 24.7803C12.5512 24.9375 14.0475 24.9375 15.9478 24.9375H16.0522C17.9525 24.9375 19.4488 24.9375 20.6179 24.7803C21.8174 24.6191 22.7748 24.2811 23.528 23.528C24.2811 22.7748 24.6191 21.8174 24.7803 20.6179C24.9375 19.4488 24.9375 17.9525 24.9375 16.0522V16C24.9375 15.6203 24.6297 15.3125 24.25 15.3125C23.8703 15.3125 23.5625 15.6203 23.5625 16C23.5625 17.964 23.561 19.3678 23.4176 20.4346C23.2768 21.4817 23.0107 22.1006 22.5557 22.5557C22.1006 23.0107 21.4817 23.2768 20.4346 23.4176C19.3678 23.561 17.964 23.5625 16 23.5625C14.036 23.5625 12.6322 23.561 11.5654 23.4176C10.5183 23.2768 9.89938 23.0107 9.44432 22.5557C8.98926 22.1006 8.72317 21.4817 8.58239 20.4346C8.43896 19.3678 8.4375 17.964 8.4375 16C8.4375 14.036 8.43896 12.6322 8.58239 11.5654C8.72317 10.5183 8.98926 9.89938 9.44432 9.44432C9.89938 8.98926 10.5183 8.72317 11.5654 8.58239C12.6322 8.43896 14.036 8.4375 16 8.4375C16.3797 8.4375 16.6875 8.1297 16.6875 7.75C16.6875 7.3703 16.3797 7.0625 16 7.0625Z" fill="#282A51"/>
<path fill-rule="evenodd" clip-rule="evenodd" d="M24.2039 7.79611C23.2258 6.81796 21.6399 6.81797 20.6617 7.79611L14.5053 13.9525C13.6174 14.8402 13.0748 15.3827 12.7015 16.0507C12.4933 16.4232 12.3115 16.9883 12.1505 17.5666C11.985 18.1615 11.822 18.846 11.6665 19.4994L11.6645 19.5074C11.6092 19.7397 11.6784 19.984 11.8472 20.1528C12.016 20.3216 12.2603 20.3908 12.4926 20.3355L12.5006 20.3336C13.154 20.178 13.8385 20.015 14.4334 19.8495C15.0117 19.6885 15.5768 19.5067 15.9494 19.2985C16.6173 18.9252 17.1598 18.3826 18.0475 17.4947L24.2039 11.3383C25.182 10.3601 25.182 8.77425 24.2039 7.79611ZM21.634 8.76838C22.0752 8.32721 22.7905 8.32721 23.2316 8.76838C23.6728 9.20955 23.6728 9.92483 23.2316 10.366L22.4328 11.1648L20.8352 9.56719L21.634 8.76838ZM19.8629 10.5395L21.4606 12.1371L17.149 16.4487C16.1644 17.4333 15.76 17.8292 15.2786 18.0982C15.0674 18.2162 14.6513 18.3616 14.0648 18.5248C13.8141 18.5945 13.5453 18.6642 13.2662 18.7338C13.3358 18.4547 13.4055 18.1859 13.4752 17.9352C13.6384 17.3487 13.7838 16.9326 13.9018 16.7214C14.1708 16.24 14.5668 15.8356 15.5514 14.851L19.8629 10.5395Z" fill="#282A51"/>
<path d="M16 7.0625H15.9478C14.0475 7.06249 12.5512 7.06248 11.3821 7.21965C10.1826 7.38093 9.22517 7.71893 8.47205 8.47205C7.71893 9.22517 7.38093 10.1826 7.21965 11.3821C7.06248 12.5512 7.06249 14.0475 7.0625 15.9478V16.0522C7.06249 17.9525 7.06248 19.4488 7.21965 20.6179C7.38093 21.8174 7.71893 22.7748 8.47205 23.528C9.22517 24.2811 10.1826 24.6191 11.3821 24.7803C12.5512 24.9375 14.0475 24.9375 15.9478 24.9375H16.0522C17.9525 24.9375 19.4488 24.9375 20.6179 24.7803C21.8174 24.6191 22.7748 24.2811 23.528 23.528C24.2811 22.7748 24.6191 21.8174 24.7803 20.6179C24.9375 19.4488 24.9375 17.9525 24.9375 16.0522V16C24.9375 15.6203 24.6297 15.3125 24.25 15.3125C23.8703 15.3125 23.5625 15.6203 23.5625 16C23.5625 17.964 23.561 19.3678 23.4176 20.4346C23.2768 21.4817 23.0107 22.1006 22.5557 22.5557C22.1006 23.0107 21.4817 23.2768 20.4346 23.4176C19.3678 23.561 17.964 23.5625 16 23.5625C14.036 23.5625 12.6322 23.561 11.5654 23.4176C10.5183 23.2768 9.89938 23.0107 9.44432 22.5557C8.98926 22.1006 8.72317 21.4817 8.58239 20.4346C8.43896 19.3678 8.4375 17.964 8.4375 16C8.4375 14.036 8.43896 12.6322 8.58239 11.5654C8.72317 10.5183 8.98926 9.89938 9.44432 9.44432C9.89938 8.98926 10.5183 8.72317 11.5654 8.58239C12.6322 8.43896 14.036 8.4375 16 8.4375C16.3797 8.4375 16.6875 8.1297 16.6875 7.75C16.6875 7.3703 16.3797 7.0625 16 7.0625Z" stroke="#282A51" stroke-width="0.3" stroke-linecap="round"/>
<path fill-rule="evenodd" clip-rule="evenodd" d="M24.2039 7.79611C23.2258 6.81796 21.6399 6.81797 20.6617 7.79611L14.5053 13.9525C13.6174 14.8402 13.0748 15.3827 12.7015 16.0507C12.4933 16.4232 12.3115 16.9883 12.1505 17.5666C11.985 18.1615 11.822 18.846 11.6665 19.4994L11.6645 19.5074C11.6092 19.7397 11.6784 19.984 11.8472 20.1528C12.016 20.3216 12.2603 20.3908 12.4926 20.3355L12.5006 20.3336C13.154 20.178 13.8385 20.015 14.4334 19.8495C15.0117 19.6885 15.5768 19.5067 15.9494 19.2985C16.6173 18.9252 17.1598 18.3826 18.0475 17.4947L24.2039 11.3383C25.182 10.3601 25.182 8.77425 24.2039 7.79611ZM21.634 8.76838C22.0752 8.32721 22.7905 8.32721 23.2316 8.76838C23.6728 9.20955 23.6728 9.92483 23.2316 10.366L22.4328 11.1648L20.8352 9.56719L21.634 8.76838ZM19.8629 10.5395L21.4606 12.1371L17.149 16.4487C16.1644 17.4333 15.76 17.8292 15.2786 18.0982C15.0674 18.2162 14.6513 18.3616 14.0648 18.5248C13.8141 18.5945 13.5453 18.6642 13.2662 18.7338C13.3358 18.4547 13.4055 18.1859 13.4752 17.9352C13.6384 17.3487 13.7838 16.9326 13.9018 16.7214C14.1708 16.24 14.5668 15.8356 15.5514 14.851L19.8629 10.5395Z" stroke="#282A51" stroke-width="0.3" stroke-linecap="round"/>
</svg>
