<svg width="26" height="21" viewBox="0 0 26 21" fill="none" xmlns="http://www.w3.org/2000/svg">
<path d="M24.2082 18.6757C24.691 18.676 25.0832 19.0679 25.0832 19.5507C25.0831 20.0335 24.691 20.4255 24.2082 20.4257H5.55488C5.07202 20.4256 4.67995 20.0336 4.67988 19.5507C4.67988 19.0678 5.07197 18.6758 5.55488 18.6757H24.2082ZM1.63105 2.07805C6.09809 -1.60349 10.5697 0.664784 11.1262 0.971608C11.7205 1.23435 14.735 2.70833 14.9963 2.83782L15.2072 2.94329C16.8408 3.75251 17.7916 4.19679 18.0324 4.2636L18.0666 4.27239C18.2976 4.34239 18.346 4.31399 18.4895 4.22649C18.515 4.21021 18.5394 4.19455 18.5627 4.18059C18.7635 4.06252 19.2029 3.53059 19.4396 3.24602C19.6263 3.02086 19.7874 2.82605 19.9309 2.68255C20.2284 2.38389 20.659 2.13273 21.0148 2.0429C21.3952 1.90765 21.9706 1.97214 23.5617 2.46673L23.6809 2.50286L23.7316 2.5263C24.4456 2.84596 24.8717 3.29542 25.0012 3.86126C25.1212 4.25069 25.0538 4.61794 24.9943 4.94329C24.985 4.99579 24.9744 5.05135 24.965 5.10735L24.9572 5.15813L24.9426 5.20891C24.8924 5.38049 24.8112 5.69988 24.718 6.06926C24.4391 7.16476 24.0168 8.82083 23.6271 9.74016L23.6174 9.76165C23.4144 10.205 23.1652 10.676 22.5539 11.124L22.5148 11.1503C21.5736 11.7649 20.4563 11.568 19.8566 11.4618L19.8166 11.455C19.4794 11.3955 18.1714 11.0452 16.4973 10.5937C15.9618 10.449 15.4088 10.3 15.3225 10.2802C15.2887 10.2732 15.254 10.2635 15.218 10.2519C15.2506 10.4105 15.2939 10.6021 15.3371 10.79C15.5015 11.52 15.5673 11.8385 15.5568 12.08C15.5393 12.8103 14.8734 13.4218 14.0871 13.4218H13.9709L13.8615 13.3935C13.7461 13.3632 13.585 13.3231 13.3986 13.2753C11.7537 12.8553 10.8609 12.6125 10.5471 12.455C10.3021 12.3337 9.91903 12.0927 9.64961 11.8222C9.34411 11.5167 9.1711 11.1961 9.04511 10.9628C9.02411 10.9232 9.00264 10.8841 8.98164 10.8456C8.91751 10.7313 8.83042 10.5506 8.7209 10.3222C8.57156 10.013 8.36586 9.58908 8.24336 9.38958L8.19941 9.30852C8.12599 9.15468 8.06141 9.01566 8.00312 8.8886C7.88996 8.64127 7.76008 8.36037 7.69941 8.29387C7.62299 8.22552 7.44086 8.15318 7.15351 8.07708L7.07734 8.05755C6.51838 7.91019 2.90111 6.92473 2.16426 6.70989C2.06164 6.67957 1.96439 6.65527 1.87226 6.63079C1.26443 6.47329 0.508542 6.27707 0.103708 5.18157C-0.345416 3.9683 0.773367 2.90012 1.37422 2.3261C1.44655 2.25727 1.5096 2.19579 1.55976 2.14446L1.63105 2.07805ZM10.2922 2.51165C10.2549 2.48948 6.50535 0.357896 2.77558 3.40032C2.71958 3.45632 2.65279 3.52075 2.57929 3.59075C2.05927 4.08747 1.78054 4.42663 1.75117 4.60051C1.82934 4.81168 1.84795 4.81648 2.30879 4.93548C2.41603 4.96345 2.53053 4.9923 2.65058 5.02727C3.37874 5.23964 6.965 6.21695 7.5207 6.36321L7.5959 6.38372C8.12186 6.52133 8.43922 6.60503 8.87422 6.99798C9.18802 7.28028 9.35772 7.64778 9.59101 8.1552C9.64117 8.26485 9.69618 8.3851 9.75801 8.51458C9.9225 8.78991 10.1182 9.19783 10.2932 9.5595C10.3794 9.73787 10.4697 9.92236 10.507 9.99114C10.5326 10.0364 10.5577 10.083 10.5832 10.1318C10.6812 10.3149 10.7599 10.4599 10.8859 10.5859C10.9734 10.6745 11.1783 10.8141 11.3264 10.8876C11.5819 11.0008 13.0259 11.3718 13.7072 11.5468C13.6792 11.4185 13.6487 11.2855 13.6242 11.1747C13.5484 10.8388 13.4758 10.5215 13.4396 10.2929C13.428 10.2194 13.4009 10.108 13.3752 10.0019C13.3006 9.68939 13.2297 9.39304 13.2775 9.10735C13.3266 8.81342 13.5016 8.55801 13.757 8.4052C14.2517 8.11122 14.8329 8.27349 15.5422 8.51848C15.6109 8.54179 15.6694 8.56249 15.7102 8.57415C15.8223 8.59985 16.1505 8.68866 16.9494 8.90325C17.956 9.17503 19.8296 9.67998 20.1174 9.7304L20.1584 9.73723C20.5387 9.8049 21.1723 9.91691 21.5363 9.69524C21.7836 9.50862 21.8801 9.3415 22.0178 9.0429C22.3549 8.24367 22.7539 6.67603 23.0187 5.63665C23.1132 5.26681 23.1891 4.96915 23.2463 4.76848C23.2544 4.72073 23.2633 4.67426 23.2727 4.62883C23.2901 4.53447 23.3119 4.4097 23.3166 4.34661L23.302 4.28997C23.274 4.2643 23.2044 4.21213 23.0598 4.14446L23.0402 4.1386C22.0716 3.83787 21.6619 3.75813 21.5041 3.73821L21.4279 3.74505C21.3696 3.76955 21.2535 3.83156 21.1672 3.9179C21.0797 4.00535 20.9299 4.18627 20.7853 4.36223C20.377 4.85572 19.9137 5.4154 19.4494 5.68841L19.4074 5.7138C19.1508 5.87246 18.5495 6.24296 17.5695 5.95012C17.1319 5.82869 16.0398 5.30758 14.4289 4.50969L14.2199 4.40716C13.5629 4.08388 10.7258 2.70125 10.3957 2.56243L10.342 2.53997L10.2922 2.51165Z" fill="white"/>
</svg>
