<svg width="24" height="24" viewBox="0 0 24 24" fill="none" xmlns="http://www.w3.org/2000/svg">
<path d="M12 5.50096L12.54 6.02096C12.47 6.09355 12.3862 6.15129 12.2934 6.19072C12.2006 6.23016 12.1008 6.25048 12 6.25048C11.8992 6.25048 11.7994 6.23016 11.7066 6.19072C11.6138 6.15129 11.53 6.09355 11.46 6.02096L12 5.50096ZM14.574 18.323C16.09 17.128 17.747 15.961 19.062 14.481C20.35 13.029 21.25 11.336 21.25 9.13796H22.75C22.75 11.804 21.64 13.838 20.183 15.477C18.753 17.087 16.929 18.377 15.503 19.501L14.574 18.323ZM21.25 9.13796C21.25 6.98796 20.035 5.18396 18.376 4.42496C16.764 3.68796 14.598 3.88296 12.54 6.02096L11.46 4.98196C13.9 2.44496 16.736 2.02596 19 3.06096C21.214 4.07396 22.75 6.42596 22.75 9.13796H21.25ZM15.503 19.501C14.99 19.905 14.44 20.335 13.883 20.661C13.326 20.987 12.69 21.251 12 21.251V19.751C12.31 19.751 12.674 19.631 13.126 19.366C13.579 19.102 14.048 18.738 14.574 18.323L15.503 19.501ZM8.497 19.501C7.071 18.376 5.247 17.088 3.817 15.477C2.36 13.837 1.25 11.804 1.25 9.13796H2.75C2.75 11.336 3.65 13.029 4.938 14.481C6.253 15.961 7.91 17.128 9.426 18.323L8.497 19.501ZM1.25 9.13796C1.25 6.42596 2.785 4.07396 5 3.06096C7.264 2.02596 10.098 2.44496 12.54 4.98096L11.46 6.02096C9.402 3.88396 7.236 3.68796 5.624 4.42496C3.965 5.18396 2.75 6.98696 2.75 9.13796H1.25ZM9.426 18.323C9.952 18.738 10.421 19.102 10.874 19.366C11.327 19.63 11.69 19.751 12 19.751V21.251C11.31 21.251 10.674 20.986 10.117 20.661C9.559 20.335 9.01 19.905 8.497 19.501L9.426 18.323Z" fill="white"/>
</svg>
