<svg width="28" height="28" viewBox="0 0 28 28" fill="none" xmlns="http://www.w3.org/2000/svg">
<path fill-rule="evenodd" clip-rule="evenodd" d="M14 1.45801C15.0193 1.45801 15.9224 1.80811 16.8858 2.39062C17.8189 2.95484 18.8859 3.78707 20.2247 4.83203L21.4356 5.77734C21.4926 5.82184 21.5489 5.86578 21.6045 5.90918C23.2098 7.16132 24.2482 7.97095 24.8125 9.12891C25.3765 10.2863 25.3757 11.6043 25.375 13.6445V16.3652C25.3751 18.5171 25.3749 20.2213 25.1963 21.5547C25.0126 22.9264 24.6254 24.0365 23.753 24.9121C22.88 25.7882 21.7727 26.1777 20.4043 26.3623C19.0751 26.5416 17.3763 26.542 15.2325 26.542H12.7676C10.6237 26.542 8.92503 26.5417 7.59575 26.3623C6.22742 26.1777 5.12005 25.7882 4.24711 24.9121C3.37477 24.0365 2.98751 22.9263 2.80375 21.5547C2.62518 20.2213 2.62502 18.5171 2.62504 16.3652V13.6445C2.62438 11.6042 2.62444 10.2864 3.18852 9.12891C3.75286 7.97102 4.79035 7.16127 6.39555 5.90918C6.45133 5.86567 6.50832 5.82196 6.56547 5.77734L7.77641 4.83203C9.11503 3.78716 10.1813 2.95481 11.1143 2.39062C12.0777 1.80809 12.9808 1.45804 14 1.45801ZM14.001 18.375C13.4466 18.375 13.0744 18.3759 12.7862 18.3955C12.5057 18.4146 12.3683 18.4482 12.2784 18.4854C11.9208 18.6333 11.6374 18.9179 11.4893 19.2754C11.4521 19.3653 11.4177 19.5018 11.3985 19.7822C11.3787 20.0705 11.3773 20.4433 11.377 20.998L11.375 24.7891C11.8281 24.7913 12.3129 24.792 12.8331 24.792H15.167C15.6871 24.792 16.172 24.7913 16.625 24.7891V20.999C16.625 20.4442 16.6242 20.0716 16.6045 19.7832C16.5854 19.5026 16.5519 19.3653 16.5147 19.2754C16.3667 18.9178 16.0823 18.6334 15.7247 18.4854C15.6347 18.4481 15.4974 18.4146 15.2168 18.3955C14.9284 18.3759 14.5559 18.375 14.001 18.375ZM14 3.20801C13.4182 3.20803 12.8327 3.39601 12.0196 3.8877C11.1863 4.39155 10.2017 5.15874 8.80864 6.24609L7.64164 7.15625C5.80486 8.58995 5.12588 9.14636 4.76079 9.89551C4.39552 10.6451 4.37504 11.5254 4.37504 13.8604V16.2998C4.37504 18.5319 4.37693 20.1186 4.53813 21.3223C4.69606 22.5011 4.99209 23.1817 5.48637 23.6777C5.98024 24.1734 6.65692 24.4696 7.83012 24.6279C8.34963 24.698 8.94082 24.7369 9.62504 24.7598L9.627 20.9678C9.62724 20.45 9.62803 20.017 9.65239 19.6621C9.67775 19.2928 9.73201 18.9437 9.87211 18.6055C10.1979 17.819 10.8228 17.1936 11.6094 16.8682C11.9478 16.7282 12.2976 16.6746 12.667 16.6494C13.0219 16.6252 13.4541 16.625 13.9717 16.625H14.0303C14.5483 16.625 14.981 16.6252 15.336 16.6494C15.7056 16.6746 16.0551 16.7291 16.3936 16.8691C17.1804 17.1948 17.8053 17.8197 18.1309 18.6064C18.271 18.945 18.3254 19.2945 18.3506 19.6641C18.3748 20.0191 18.3751 20.4518 18.375 20.9697V24.7598C19.0593 24.7369 19.6505 24.698 20.17 24.6279C21.3431 24.4696 22.0199 24.1733 22.5137 23.6777C23.008 23.1817 23.304 22.5011 23.462 21.3223C23.6232 20.1186 23.625 18.5319 23.625 16.2998V13.8604C23.625 11.5253 23.6046 10.6451 23.2393 9.89551C22.8742 9.14636 22.1952 8.58995 20.3584 7.15625L19.1915 6.24609C17.7985 5.15879 16.8137 4.39153 15.9805 3.8877C15.1674 3.39605 14.5819 3.20801 14 3.20801Z" fill="white"/>
</svg>
