<svg width="32" height="32" viewBox="0 0 32 32" fill="none" xmlns="http://www.w3.org/2000/svg">
<rect width="32" height="32" rx="16" fill="#EAEAEE"/>
<path fill-rule="evenodd" clip-rule="evenodd" d="M16.0001 7.0415C17.5186 7.0415 18.9282 7.6708 19.6766 8.70817H24.3334C24.6786 8.70817 24.9584 8.988 24.9584 9.33317C24.9584 9.67835 24.6786 9.95817 24.3334 9.95817H24.1251V22.7038C24.1252 23.0645 24.1252 23.3952 24.089 23.6642C24.0492 23.9604 23.9555 24.2735 23.6979 24.531C23.4404 24.7886 23.1273 24.8823 22.8311 24.9221C22.5621 24.9583 22.2314 24.9583 21.8707 24.9583H10.1295C9.76879 24.9583 9.43809 24.9583 9.16908 24.9221C8.87285 24.8823 8.55974 24.7886 8.30222 24.531C8.04471 24.2735 7.951 23.9604 7.91117 23.6642C7.88224 23.449 7.87647 23.1943 7.87535 22.9163L7.87509 9.95817H7.66675C7.32157 9.95817 7.04175 9.67835 7.04175 9.33317C7.04175 8.988 7.32157 8.70817 7.66675 8.70817H12.3236C13.072 7.6708 14.4816 7.0415 16.0001 7.0415ZM16.0001 8.2915C14.6543 8.2915 13.6108 8.90784 13.2154 9.63254C13.1059 9.83328 12.8954 9.95817 12.6667 9.95817H9.12509L9.12567 22.9448C9.12715 23.1952 9.13232 23.3659 9.15002 23.4976C9.16084 23.5781 9.17359 23.6184 9.18106 23.6365C9.18278 23.6408 9.18413 23.6435 9.18497 23.6451C9.18976 23.6491 9.19252 23.6505 9.19672 23.6522C9.21487 23.6597 9.25517 23.6724 9.33564 23.6833C9.51124 23.7068 9.75625 23.7082 10.1668 23.7082H13.7084V20.9998C13.7084 19.7342 14.7344 18.7082 16.0001 18.7082C17.2657 18.7082 18.2918 19.7342 18.2918 20.9998V23.7082H21.8334C22.2439 23.7082 22.4889 23.7068 22.6645 23.6833C22.745 23.6724 22.7853 23.6597 22.8034 23.6522L22.8085 23.65L22.812 23.6483C22.8161 23.6435 22.8174 23.6408 22.8191 23.6365C22.8266 23.6184 22.8393 23.5781 22.8502 23.4976C22.8737 23.322 22.8751 23.077 22.8751 22.6665V9.95817H19.3334C19.1047 9.95817 18.8943 9.83328 18.7847 9.63254C18.3893 8.90784 17.3458 8.2915 16.0001 8.2915ZM16.0001 19.9582C15.4247 19.9582 14.9584 20.4245 14.9584 20.9998V23.7082H17.0417V20.9998C17.0417 20.4245 16.5754 19.9582 16.0001 19.9582ZM11.8334 18.7082C12.1786 18.7082 12.4584 18.988 12.4584 19.3332C12.4584 19.6783 12.1786 19.9582 11.8334 19.9582H11.0001C10.6549 19.9582 10.3751 19.6783 10.3751 19.3332C10.3751 18.988 10.6549 18.7082 11.0001 18.7082H11.8334ZM21.0001 18.7082C21.3452 18.7082 21.6251 18.988 21.6251 19.3332C21.6251 19.6783 21.3452 19.9582 21.0001 19.9582H20.1667C19.8216 19.9582 19.5417 19.6783 19.5417 19.3332C19.5417 18.988 19.8216 18.7082 20.1667 18.7082H21.0001ZM11.8334 15.3748C12.1786 15.3748 12.4584 15.6547 12.4584 15.9998C12.4584 16.345 12.1786 16.6248 11.8334 16.6248H11.0001C10.6549 16.6248 10.3751 16.345 10.3751 15.9998C10.3751 15.6547 10.6549 15.3748 11.0001 15.3748H11.8334ZM21.0001 15.3748C21.3452 15.3748 21.6251 15.6547 21.6251 15.9998C21.6251 16.345 21.3452 16.6248 21.0001 16.6248H20.1667C19.8216 16.6248 19.5417 16.345 19.5417 15.9998C19.5417 15.6547 19.8216 15.3748 20.1667 15.3748H21.0001ZM17.2501 12.0415C17.5952 12.0415 17.8751 12.3213 17.8751 12.6665V15.1665C17.8751 15.5117 17.5952 15.7915 17.2501 15.7915C16.9049 15.7915 16.6251 15.5117 16.6251 15.1665V14.5415H15.3751V15.1665C15.3751 15.5117 15.0952 15.7915 14.7501 15.7915C14.4049 15.7915 14.1251 15.5117 14.1251 15.1665V12.6665C14.1251 12.3213 14.4049 12.0415 14.7501 12.0415C15.0952 12.0415 15.3751 12.3213 15.3751 12.6665V13.2915H16.6251V12.6665C16.6251 12.3213 16.9049 12.0415 17.2501 12.0415ZM11.8334 12.0415C12.1786 12.0415 12.4584 12.3213 12.4584 12.6665C12.4584 13.0117 12.1786 13.2915 11.8334 13.2915H11.0001C10.6549 13.2915 10.3751 13.0117 10.3751 12.6665C10.3751 12.3213 10.6549 12.0415 11.0001 12.0415H11.8334ZM21.0001 12.0415C21.3452 12.0415 21.6251 12.3213 21.6251 12.6665C21.6251 13.0117 21.3452 13.2915 21.0001 13.2915H20.1667C19.8216 13.2915 19.5417 13.0117 19.5417 12.6665C19.5417 12.3213 19.8216 12.0415 20.1667 12.0415H21.0001Z" fill="url(#paint0_linear_633_22091)"/>
<defs>
<linearGradient id="paint0_linear_633_22091" x1="16.0001" y1="7.0415" x2="16.0001" y2="24.9583" gradientUnits="userSpaceOnUse">
<stop stop-color="#FE406F"/>
<stop offset="1" stop-color="#FD6B38"/>
</linearGradient>
</defs>
</svg>
