<svg width="24" height="24" viewBox="0 0 24 24" fill="none" xmlns="http://www.w3.org/2000/svg">
<path fill-rule="evenodd" clip-rule="evenodd" d="M11.998 1.25C8.17202 1.25016 4.52199 3.51344 2.99413 7.08496C1.57405 10.4047 2.34059 13.2365 3.94139 15.6611C5.26923 17.6723 7.21301 19.4628 8.96093 21.0732C9.27127 21.3592 9.57565 21.6392 9.86913 21.9141C10.4441 22.4523 11.2078 22.7499 11.998 22.75C12.7884 22.75 13.5529 22.4524 14.1279 21.9141L14.1289 21.9131C14.4395 21.6205 14.763 21.3215 15.0928 21.0166C16.8218 19.4177 18.7387 17.645 20.0527 15.6592C21.6552 13.2371 22.4246 10.4086 21.0029 7.08496C19.475 3.51331 15.8242 1.25 11.998 1.25ZM11.998 2.75C15.2574 2.75 18.3452 4.68544 19.624 7.6748C20.7974 10.418 20.2041 12.7127 18.8017 14.832C17.5972 16.6525 15.8412 18.278 14.1103 19.8809C13.7718 20.1944 13.4339 20.5072 13.1016 20.8203C12.8093 21.0935 12.4138 21.25 11.998 21.25C11.582 21.2499 11.1868 21.093 10.8945 20.8193C10.5824 20.527 10.2659 20.2345 9.94823 19.9414C8.19501 18.3238 6.4109 16.6781 5.19335 14.834C3.79254 12.7121 3.20117 10.4143 4.37303 7.6748C5.6518 4.68557 8.7388 2.75016 11.998 2.75ZM12 6.75C9.65278 6.75 7.74999 8.65279 7.74999 11C7.74999 13.3472 9.65278 15.25 12 15.25C14.3472 15.25 16.25 13.3472 16.25 11C16.25 8.65279 14.3472 6.75 12 6.75ZM12 8.25C13.5188 8.25 14.75 9.48122 14.75 11C14.75 12.5188 13.5188 13.75 12 13.75C10.4812 13.75 9.24999 12.5188 9.24999 11C9.24999 9.48122 10.4812 8.25 12 8.25Z" fill="#8F8F8F"/>
</svg>
