<svg width="18" height="18" viewBox="0 0 18 18" fill="none" xmlns="http://www.w3.org/2000/svg">
<path fill-rule="evenodd" clip-rule="evenodd" d="M9.4502 1.6875C9.83229 1.68751 10.2083 1.71329 10.5762 1.76367C10.8839 1.80582 11.0997 2.08974 11.0576 2.39746C11.0155 2.70518 10.7315 2.92094 10.4238 2.87891C10.1064 2.83542 9.78119 2.81251 9.4502 2.8125C5.74966 2.8125 2.8125 5.61638 2.8125 9C2.8125 12.3836 5.74966 15.1875 9.4502 15.1875C9.78119 15.1875 10.1064 15.1646 10.4238 15.1211C10.7315 15.0791 11.0155 15.2948 11.0576 15.6025C11.0997 15.9103 10.8839 16.1942 10.5762 16.2363C10.2083 16.2867 9.83229 16.3125 9.4502 16.3125C5.19783 16.3125 1.6875 13.0722 1.6875 9C1.6875 4.92777 5.19783 1.6875 9.4502 1.6875ZM13.4717 6.7334C13.6881 6.5107 14.0438 6.50537 14.2666 6.72168C14.335 6.78821 14.4722 6.89772 14.6758 7.05762C14.6904 7.0691 14.7056 7.08094 14.7207 7.09277C14.9022 7.23522 15.1152 7.40208 15.3184 7.57422C15.5363 7.75887 15.7625 7.96625 15.9385 8.17285C16.0266 8.27636 16.1135 8.39305 16.1807 8.51855C16.2455 8.63963 16.3125 8.8063 16.3125 9C16.3125 9.1937 16.2455 9.36037 16.1807 9.48145C16.1135 9.60695 16.0266 9.72364 15.9385 9.82715C15.7625 10.0338 15.5363 10.2411 15.3184 10.4258C15.1152 10.5979 14.9022 10.7648 14.7207 10.9072C14.7056 10.9191 14.6904 10.9309 14.6758 10.9424C14.4722 11.1023 14.335 11.2118 14.2666 11.2783C14.0438 11.4946 13.6881 11.4893 13.4717 11.2666C13.2554 11.0438 13.2607 10.6881 13.4834 10.4717C13.6046 10.3539 13.797 10.2017 13.9805 10.0576C13.9946 10.0465 14.0092 10.0356 14.0234 10.0244C14.2076 9.87985 14.4045 9.72526 14.5908 9.56738C14.5926 9.56587 14.5949 9.56401 14.5967 9.5625H8.25C7.93934 9.5625 7.6875 9.31066 7.6875 9C7.6875 8.68934 7.93934 8.4375 8.25 8.4375H14.5967C14.5949 8.43599 14.5926 8.43413 14.5908 8.43262C14.4045 8.27474 14.2076 8.12015 14.0234 7.97559C14.0092 7.96439 13.9946 7.95346 13.9805 7.94238C13.797 7.7983 13.6046 7.64609 13.4834 7.52832C13.2607 7.31186 13.2554 6.95618 13.4717 6.7334Z" fill="#DD1C24"/>
</svg>
