<svg width="22" height="22" viewBox="0 0 22 22" fill="none" xmlns="http://www.w3.org/2000/svg">
<path fill-rule="evenodd" clip-rule="evenodd" d="M5.25 9.99962C3.19552 9.99979 1.23038 11.2139 0.404295 13.1451C-0.367598 14.9499 0.0590305 16.4988 0.909178 17.7867C1.60073 18.8343 2.61318 19.7659 3.48535 20.569C3.63865 20.7101 3.78751 20.8479 3.92969 20.9811C4.28771 21.3162 4.7615 21.4995 5.25 21.4996C5.73868 21.4996 6.21315 21.3163 6.57129 20.9811L6.57324 20.9791C6.723 20.838 6.88066 20.6926 7.04297 20.5426C7.90639 19.7446 8.90537 18.8212 9.58984 17.7867C10.4412 16.5 10.8695 14.9522 10.0967 13.1451C9.27054 11.2137 7.30464 9.99962 5.25 9.99962ZM5.25 11.4996C6.73777 11.4996 8.14069 12.3858 8.71777 13.735C9.24223 14.9613 8.98973 15.9748 8.33887 16.9586C7.76386 17.8277 6.92577 18.604 6.06055 19.4059C5.88933 19.5646 5.71747 19.7247 5.5459 19.8863C5.47045 19.9567 5.36416 19.9996 5.25 19.9996C5.13588 19.9995 5.03045 19.9567 4.95508 19.8863C4.7943 19.7358 4.63225 19.5864 4.47168 19.4381C3.59424 18.6279 2.74238 17.841 2.16113 16.9606C1.51069 15.9753 1.25938 14.9597 1.7832 13.735C2.36023 12.386 3.76238 11.4998 5.25 11.4996ZM14.7627 0.00157034C14.2562 -0.0149047 13.7919 0.0993761 13.2969 0.291609C12.8236 0.475406 12.2753 0.749874 11.6064 1.08458L8.24414 2.7672C8.00817 2.88528 7.86338 2.95534 7.76269 2.99962C7.7588 2.99956 7.75489 2.99962 7.75098 2.99962C7.62214 2.99962 7.5024 3.03516 7.39648 3.09239C7.2871 3.09959 7.1228 3.10313 6.83008 3.10313H4.69824C3.80102 3.1031 3.05022 3.10277 2.4541 3.18516C1.82242 3.27252 1.25335 3.46475 0.798826 3.93223C0.34716 4.39683 0.163675 4.9733 0.0800762 5.6129C0.00050354 6.22186 0.000947952 6.99038 0.000974655 7.91661V8.74962C0.000974655 9.16383 0.336761 9.49962 0.750975 9.49962C1.16518 9.49961 1.50097 9.16382 1.50097 8.74962V7.96739C1.50097 6.97704 1.50201 6.30752 1.56738 5.80723C1.63019 5.32665 1.74 5.1161 1.87402 4.97813C2.00527 4.84313 2.20168 4.73477 2.65918 4.67149C3.1405 4.60493 3.78637 4.60313 4.75097 4.60313H6.8916C6.92873 4.60315 6.9652 4.60122 7.00098 4.60118V8.24962C7.00098 8.66383 7.33676 8.99962 7.75098 8.99962C8.16518 8.99961 8.50098 8.66383 8.50098 8.24962V4.30821C8.61352 4.25548 8.7328 4.20073 8.85937 4.13731C8.87774 4.12811 8.89627 4.11838 8.91504 4.10899L12.2471 2.442C12.9547 2.08787 13.4399 1.84538 13.8398 1.69005C13.896 1.66825 13.9501 1.65003 14.001 1.63243V15.0699C13.4979 15.1602 13.0362 15.3514 12.6318 15.5504C12.4091 15.66 12.1921 15.7781 11.9912 15.8873L11.9619 15.9039C11.7682 16.0092 11.5897 16.1056 11.415 16.193C11.0449 16.3783 10.8951 16.8286 11.0801 17.1988C11.2654 17.5693 11.7165 17.7201 12.0869 17.5348C12.2853 17.4355 12.4842 17.3273 12.6719 17.2252L12.708 17.2047C12.9108 17.0944 13.1032 16.9914 13.2949 16.8971C13.6815 16.7069 14.0237 16.5765 14.3486 16.5318C15.0923 16.4298 15.6992 16.7851 16.6318 17.3297L16.6885 17.3619C17.3074 17.7233 17.822 18.0238 18.248 18.2174C18.6787 18.4131 19.1471 18.5621 19.6416 18.4732C20.1761 18.3772 20.6551 18.0889 20.9941 17.6656C21.3046 17.2779 21.4083 16.7982 21.4551 16.3199C21.5014 15.8459 21.501 15.2395 21.501 14.5055V6.21446C21.501 5.65944 21.5013 5.18978 21.4639 4.80137C21.4241 4.38943 21.3377 4.00981 21.1318 3.6461C20.9253 3.2812 20.644 3.0137 20.3115 2.77208C20 2.54571 19.6016 2.31374 19.1338 2.04063C19.1237 2.03472 19.1137 2.02803 19.1035 2.02208L17.8457 1.2877C17.1988 0.910028 16.6689 0.600571 16.208 0.386336C15.726 0.162277 15.2692 0.0181066 14.7627 0.00157034ZM15.5752 1.74669C15.965 1.92788 16.4346 2.20155 17.1191 2.60118L18.3477 3.31798C18.8541 3.61367 19.1862 3.809 19.4297 3.98595C19.6592 4.15276 19.7611 4.27039 19.8262 4.38536C19.8919 4.50143 19.9425 4.65369 19.9707 4.94591C20.0004 5.25382 20.001 5.65012 20.001 6.24864V14.4654C20.001 15.249 20.0003 15.7813 19.9619 16.1734C19.9231 16.5698 19.855 16.6885 19.8232 16.7281C19.7069 16.8733 19.547 16.9669 19.376 16.9977C19.3397 17.0041 19.2177 17.01 18.8682 16.8512C18.5206 16.6932 18.0726 16.4328 17.4092 16.0455C17.3564 16.0147 17.302 15.9832 17.2471 15.9508C16.7547 15.6605 16.1731 15.3173 15.501 15.1383V1.71446C15.525 1.72515 15.5501 1.73502 15.5752 1.74669ZM5.24219 14.2496C4.68998 14.2496 4.24232 14.6974 4.24219 15.2496C4.24219 15.8019 4.6899 16.2496 5.24219 16.2496H5.25097C5.80325 16.2496 6.25098 15.8019 6.25098 15.2496C6.25085 14.6974 5.80317 14.2496 5.25097 14.2496H5.24219Z" fill="#8F8F8F"/>
</svg>
