<svg width="20" height="20" viewBox="0 0 20 20" fill="none" xmlns="http://www.w3.org/2000/svg">
<path fill-rule="evenodd" clip-rule="evenodd" d="M1.04199 10C1.04199 5.05245 5.05245 1.04199 10 1.04199C14.9476 1.04199 18.958 5.05245 18.958 10C18.958 14.9475 14.9476 18.958 10 18.958C5.05245 18.958 1.04199 14.9475 1.04199 10ZM2.29199 10C2.29199 14.2572 5.74281 17.708 10 17.708C14.2572 17.708 17.708 14.2572 17.708 10C17.708 5.74281 14.2572 2.29199 10 2.29199C5.74281 2.29199 2.29199 5.74281 2.29199 10ZM6.04199 10C6.04199 9.65482 6.32182 9.375 6.66699 9.375H12.0518C12.0499 9.37338 12.0478 9.37174 12.0459 9.37012C11.8387 9.19455 11.6198 9.02208 11.415 8.86133C11.3991 8.84884 11.3829 8.83657 11.3672 8.82422C11.1634 8.66415 10.9491 8.49606 10.8145 8.36523C10.567 8.12472 10.5614 7.72898 10.8018 7.48144C11.0423 7.23392 11.438 7.22816 11.6855 7.46875C11.7616 7.54268 11.9136 7.66421 12.1396 7.8418C12.1559 7.85457 12.1727 7.86769 12.1895 7.88086C12.3911 8.03916 12.6277 8.22471 12.8535 8.41601C13.0956 8.62118 13.3475 8.85149 13.543 9.08105C13.6409 9.19603 13.7379 9.32546 13.8125 9.46484C13.8845 9.59937 13.958 9.78483 13.958 10C13.958 10.2152 13.8845 10.4006 13.8125 10.5352C13.7379 10.6745 13.6409 10.804 13.543 10.9189C13.3475 11.1485 13.0956 11.3788 12.8535 11.584C12.6277 11.7753 12.3911 11.9608 12.1895 12.1191C12.1727 12.1323 12.1559 12.1454 12.1396 12.1582C11.9136 12.3358 11.7616 12.4573 11.6855 12.5312C11.438 12.7718 11.0423 12.7661 10.8018 12.5186C10.5614 12.271 10.567 11.8753 10.8145 11.6348C10.9491 11.5039 11.1634 11.3358 11.3672 11.1758C11.3829 11.1634 11.3991 11.1512 11.415 11.1387C11.6198 10.9779 11.8387 10.8054 12.0459 10.6299C12.0478 10.6283 12.0499 10.6266 12.0518 10.625H6.66699C6.32182 10.625 6.04199 10.3452 6.04199 10Z" fill="#666666"/>
</svg>
