<svg width="18" height="18" viewBox="0 0 18 18" fill="none" xmlns="http://www.w3.org/2000/svg">
<path d="M0 8.95801C8.61751e-07 4.01046 4.01046 0 8.95801 0C13.9056 8.61751e-07 17.916 4.01046 17.916 8.95801C17.916 13.9056 13.9056 17.916 8.95801 17.916C4.01046 17.916 0 13.9056 0 8.95801ZM1.25 8.95801C1.25 13.2152 4.70081 16.666 8.95801 16.666C13.2152 16.666 16.666 13.2152 16.666 8.95801C16.666 4.70082 13.2152 1.25 8.95801 1.25C4.70081 1.25 1.25 4.70081 1.25 8.95801ZM5 8.95801C5 8.61283 5.27982 8.33301 5.625 8.33301H11.0098C11.0079 8.33139 11.0058 8.32975 11.0039 8.32813C10.7967 8.15256 10.5778 7.98009 10.373 7.81934C10.3571 7.80685 10.3409 7.79458 10.3252 7.78223C10.1214 7.62216 9.9071 7.45407 9.77246 7.32324C9.52502 7.08273 9.51941 6.68699 9.75977 6.43945C10.0004 6.19193 10.396 6.18617 10.6436 6.42676C10.7196 6.50069 10.8716 6.62222 11.0977 6.79981C11.1139 6.81258 11.1307 6.8257 11.1475 6.83887C11.3491 6.99716 11.5857 7.18272 11.8115 7.37402C12.0537 7.57919 12.3055 7.8095 12.501 8.03906C12.5989 8.15404 12.6959 8.28347 12.7705 8.42285C12.8425 8.55737 12.916 8.74284 12.916 8.95801C12.916 9.17317 12.8425 9.35864 12.7705 9.49317C12.6959 9.63255 12.5989 9.76198 12.501 9.87695C12.3055 10.1065 12.0537 10.3368 11.8115 10.542C11.5857 10.7333 11.3491 10.9189 11.1475 11.0771C11.1307 11.0903 11.1139 11.1034 11.0977 11.1162C10.8716 11.2938 10.7196 11.4153 10.6436 11.4893C10.396 11.7298 10.0004 11.7241 9.75977 11.4766C9.51942 11.229 9.52502 10.8333 9.77246 10.5928C9.9071 10.462 10.1214 10.2939 10.3252 10.1338C10.3409 10.1214 10.3571 10.1092 10.373 10.0967C10.5778 9.93593 10.7967 9.76346 11.0039 9.58789C11.0058 9.58627 11.0079 9.58463 11.0098 9.58301H5.625C5.27982 9.58301 5 9.30319 5 8.95801Z" fill="#666666"/>
</svg>
