<svg width="23" height="26" viewBox="0 0 23 26" fill="none" xmlns="http://www.w3.org/2000/svg">
<path d="M11.375 4.08398C11.8581 4.08398 12.2498 3.69208 12.25 3.20898V0.875C12.2498 0.391901 11.8581 0 11.375 0C10.8919 2.86102e-05 10.5002 0.391918 10.5 0.875V3.20898C10.5002 3.69207 10.8919 4.08396 11.375 4.08398ZM7.75879 4.90039C8.04878 5.28679 8.59688 5.36509 8.9834 5.0752C9.36991 4.78525 9.44806 4.23716 9.1582 3.85059L7.4082 1.5166C7.11824 1.13037 6.57007 1.05213 6.18359 1.3418C5.79699 1.63175 5.71884 2.18078 6.00879 2.56738L7.75879 4.90039ZM13.7666 5.0752C14.1532 5.36514 14.7022 5.28699 14.9922 4.90039L16.7422 2.56738C17.0321 2.18078 16.953 1.63175 16.5664 1.3418C16.1799 1.05218 15.6317 1.13035 15.3418 1.5166L13.5918 3.85059C13.302 4.23713 13.3802 4.78525 13.7666 5.0752ZM11.375 25.084C12.5117 25.084 13.581 24.625 15.2344 23.915C15.2923 23.8902 15.3508 23.8643 15.4102 23.8389L15.4834 23.8076C17.6916 22.8602 19.4396 22.11 20.6279 21.3857C21.8057 20.6679 22.7498 19.7884 22.75 18.4756L22.75 7.58105C22.75 6.76102 22.1742 6.24561 21.6572 5.90234C21.1373 5.55716 20.3899 5.20124 19.5088 4.78223L19.4453 4.75195C19.009 4.54446 18.4869 4.72982 18.2793 5.16602C18.0718 5.60229 18.2572 6.12434 18.6934 6.33203C19.655 6.7894 20.2867 7.09294 20.6895 7.36035C20.8446 7.46333 20.928 7.536 20.9707 7.58105C20.928 7.62612 20.8446 7.69877 20.6895 7.80176C20.2867 8.06916 19.6549 8.37175 18.6934 8.8291L15.2852 10.4502C13.1076 11.4859 12.2627 11.8662 11.375 11.8662C10.4873 11.8662 9.64237 11.4859 7.46484 10.4502L4.05664 8.8291C3.09508 8.37175 2.46332 8.06916 2.06055 7.80176C1.90542 7.69877 1.82201 7.62612 1.7793 7.58105C1.82201 7.536 1.90544 7.46333 2.06055 7.36035C2.46332 7.09294 3.09503 6.7894 4.05664 6.33203C4.49277 6.12434 4.67821 5.60229 4.4707 5.16602C4.26305 4.72983 3.74099 4.54446 3.30469 4.75195C3.28359 4.76199 3.26216 4.77226 3.24121 4.78223C2.36013 5.20124 1.61272 5.55716 1.09277 5.90234C0.575753 6.24561 0 6.76102 0 7.58105L0 18.4756C0.000232545 19.7884 0.944318 20.6679 2.12207 21.3857C3.31037 22.11 5.05844 22.8602 7.2666 23.8076L7.33984 23.8389C7.39923 23.8643 7.4577 23.8902 7.51562 23.915C9.16901 24.625 10.2383 25.084 11.375 25.084ZM10.5 23.2012C9.94313 23.0452 9.2169 22.741 8.0293 22.2314C5.73247 21.246 4.10169 20.5428 3.0332 19.8916C1.94181 19.2264 1.75019 18.8006 1.75 18.4756L1.75 9.64551C2.1774 9.87374 2.68244 10.1141 3.24121 10.3799C3.26216 10.3898 3.28359 10.4001 3.30469 10.4102L6.71289 12.0313C6.77726 12.0619 6.84145 12.0922 6.9043 12.1221C8.39835 12.8332 9.47002 13.3435 10.5 13.5342L10.5 23.2012ZM12.25 13.5342C13.28 13.3435 14.3517 12.8332 15.8457 12.1221C15.9085 12.0922 15.9727 12.0619 16.0371 12.0313L19.5088 10.3799C20.0676 10.1141 20.5726 9.87374 21 9.64551L21 18.4756C20.9998 18.8006 20.8082 19.2264 19.7168 19.8916C18.6483 20.5428 17.0175 21.246 14.7207 22.2314C13.5331 22.741 12.8069 23.0452 12.25 23.2012L12.25 13.5342ZM6.71289 15.9688C7.14923 16.1761 7.67139 15.99 7.87891 15.5537C8.08621 15.1175 7.90097 14.5953 7.46484 14.3877L5.13867 13.2813C4.70227 13.0737 4.18022 13.2599 3.97266 13.6963C3.76519 14.1327 3.95036 14.6548 4.38672 14.8623L6.71289 15.9688Z" fill="white"/>
</svg>
