<svg width="18" height="18" viewBox="0 0 18 18" fill="none" xmlns="http://www.w3.org/2000/svg">
<path d="M8.95801 0C13.9056 1.12753e-07 17.916 4.01046 17.916 8.95801C17.916 13.9056 13.9056 17.916 8.95801 17.916C4.01046 17.916 1.12749e-07 13.9056 0 8.95801C0 4.01046 4.01046 0 8.95801 0ZM8.95801 1.25C4.70081 1.25 1.25 4.70081 1.25 8.95801C1.25 13.2152 4.70081 16.666 8.95801 16.666C13.2152 16.666 16.666 13.2152 16.666 8.95801C16.666 4.70081 13.2152 1.25 8.95801 1.25ZM11.8545 9.76172C12.093 9.76166 12.33 9.76159 12.5137 9.78516C12.6642 9.80449 13.079 9.86954 13.2637 10.2744C13.4634 10.7127 13.1902 11.0716 13.0918 11.1904C12.9759 11.3304 12.804 11.4868 12.6377 11.6377L12.6104 11.6621L11.4082 12.7539C11.1527 12.9859 10.7575 12.9672 10.5254 12.7119C10.2933 12.4564 10.3128 12.0611 10.5684 11.8291L11.4678 11.0117H5.20801C4.86296 11.0116 4.58308 10.7318 4.58301 10.3867C4.58301 10.0416 4.86292 9.76182 5.20801 9.76172H11.8545ZM6.50781 5.16211C6.76321 4.9302 7.15853 4.94897 7.39062 5.2041C7.62257 5.45954 7.60388 5.85483 7.34863 6.08691L6.44824 6.9043H12.708C13.0531 6.9043 13.3329 7.18419 13.333 7.5293C13.333 7.87447 13.0532 8.1543 12.708 8.1543H6.06152C5.82297 8.15435 5.58597 8.15444 5.40234 8.13086C5.25158 8.11149 4.83694 8.04627 4.65234 7.6416C4.45282 7.20365 4.7257 6.84454 4.82422 6.72559C4.94015 6.58564 5.11206 6.42918 5.27832 6.27832L5.30566 6.25391L6.50781 5.16211Z" fill="#282A51"/>
</svg>
