<svg width="20" height="20" viewBox="0 0 20 20" fill="none" xmlns="http://www.w3.org/2000/svg">
<path fill-rule="evenodd" clip-rule="evenodd" d="M10 1.04199C14.9476 1.04199 18.958 5.05245 18.958 10C18.958 14.9476 14.9476 18.958 10 18.958C5.05245 18.958 1.04199 14.9476 1.04199 10C1.04199 5.05245 5.05245 1.04199 10 1.04199ZM10 2.29199C5.74281 2.29199 2.29199 5.74281 2.29199 10C2.29199 14.2572 5.74281 17.708 10 17.708C14.2572 17.708 17.708 14.2572 17.708 10C17.708 5.74281 14.2572 2.29199 10 2.29199ZM12.8965 10.8037C13.135 10.8037 13.372 10.8036 13.5557 10.8271C13.7062 10.8465 14.121 10.9115 14.3057 11.3164C14.5054 11.7546 14.2322 12.1136 14.1338 12.2324C14.0179 12.3724 13.8459 12.5288 13.6797 12.6797L13.6523 12.7041L12.4502 13.7959C12.1947 14.0279 11.7995 14.0092 11.5674 13.7539C11.3353 13.4984 11.3548 13.1031 11.6104 12.8711L12.5098 12.0537H6.25C5.90496 12.0536 5.62507 11.7738 5.625 11.4287C5.625 11.0836 5.90491 10.8038 6.25 10.8037H12.8965ZM7.5498 6.2041C7.8052 5.97219 8.20052 5.99096 8.43262 6.24609C8.66457 6.50153 8.64587 6.89682 8.39062 7.12891L7.49023 7.94629H13.75C14.0951 7.94629 14.3749 8.22618 14.375 8.57129C14.375 8.91647 14.0952 9.19629 13.75 9.19629H7.10352C6.86497 9.19635 6.62796 9.19643 6.44434 9.17285C6.29357 9.15348 5.87893 9.08826 5.69434 8.68359C5.49481 8.24564 5.76769 7.88653 5.86621 7.76758C5.98214 7.62763 6.15406 7.47117 6.32031 7.32031L6.34766 7.2959L7.5498 6.2041Z" fill="#282A51"/>
</svg>
