<svg width="32" height="32" viewBox="0 0 32 32" fill="none" xmlns="http://www.w3.org/2000/svg">
<rect width="32" height="32" rx="16" fill="#EAEAEE"/>
<path fill-rule="evenodd" clip-rule="evenodd" d="M15.8778 7.45825C15.4026 7.45822 14.9873 7.4582 14.6452 7.50283C14.2725 7.55147 13.9251 7.65923 13.6141 7.91544C13.3102 8.1658 13.125 8.48896 12.9781 8.85C12.8379 9.19435 12.71 9.63288 12.5573 10.1565L12.4936 10.375L10.4387 10.3749C9.92915 10.3747 9.56254 10.3746 9.2527 10.4494C8.38115 10.66 7.66254 11.3104 7.49001 12.1879C7.42929 12.4967 7.46982 12.8476 7.51893 13.2728L7.52927 13.3625C7.6064 14.0365 7.83032 14.622 8.25862 15.0971L8.26448 15.1036L8.26383 15.1104L8.09589 16.9693C7.95303 18.5505 7.83991 19.8025 7.8862 20.7863C7.93378 21.7977 8.15238 22.6303 8.76055 23.3004C9.36933 23.9713 10.1753 24.2666 11.1739 24.4061C12.1442 24.5417 13.3941 24.5416 14.9712 24.5416H17.03C18.607 24.5416 19.857 24.5417 20.8273 24.4061C21.8259 24.2666 22.6319 23.9713 23.2406 23.3004C23.8488 22.6303 24.0674 21.7977 24.115 20.7863C24.1613 19.8025 24.0482 18.5505 23.9053 16.9694L23.7374 15.1104L23.7367 15.1036L23.7425 15.0971C24.1708 14.622 24.3948 14.0365 24.4719 13.3625L24.4822 13.2728C24.5313 12.8476 24.5719 12.4967 24.5111 12.1879C24.3386 11.3104 23.62 10.66 22.7485 10.4494C22.4386 10.3746 22.072 10.3747 21.5624 10.3749L19.5075 10.375L19.4438 10.1565C19.2911 9.63289 19.1632 9.19435 19.023 8.85C18.8761 8.48896 18.6909 8.1658 18.387 7.91544C18.076 7.65923 17.7286 7.55147 17.3559 7.50283C17.0138 7.4582 16.5986 7.45822 16.1234 7.45825H15.8778ZM18.2054 10.375C18.0667 9.90094 17.967 9.5712 17.8653 9.32127C17.7563 9.05365 17.6703 8.94451 17.5923 8.88026C17.5214 8.82188 17.4241 8.77234 17.1941 8.74233C16.9424 8.70948 16.6095 8.70826 16.0858 8.70826H15.9153C15.3916 8.70826 15.0587 8.70948 14.807 8.74233C14.577 8.77234 14.4797 8.82188 14.4088 8.88026C14.3308 8.94451 14.2448 9.05365 14.1358 9.32127C14.0341 9.5712 13.9344 9.90094 13.7957 10.375H18.2054ZM9.34522 17.0331L9.44687 15.9079C9.60399 15.974 9.76871 16.0331 9.9404 16.0861L13.4218 17.1597C13.5353 17.1947 13.6442 17.2283 13.7486 17.2603C13.9487 18.3219 14.8809 19.1249 16.0006 19.1249C17.1203 19.1249 18.0524 18.3219 18.2525 17.2603C18.3569 17.2283 18.4656 17.1948 18.5791 17.1598L22.0607 16.0861C22.2325 16.0331 22.3972 15.974 22.5543 15.9078L22.656 17.0331C22.8042 18.6738 22.9081 19.8399 22.8664 20.7275C22.8255 21.5976 22.6472 22.0944 22.315 22.4604C21.9834 22.8258 21.5097 23.0486 20.6543 23.1681C19.7806 23.2902 18.6181 23.2916 16.9806 23.2916H15.0206C13.3831 23.2916 12.2206 23.2902 11.3469 23.1681C10.4915 23.0486 10.0178 22.8258 9.68621 22.4604C9.35404 22.0944 9.17575 21.5976 9.13482 20.7275C9.09306 19.8399 9.19699 18.6738 9.34522 17.0331ZM18.2878 15.9415L21.6924 14.8916C22.2443 14.7214 22.5915 14.5072 22.814 14.2602C23.0307 14.0199 23.1754 13.6974 23.23 13.2204C23.2945 12.6566 23.3026 12.5202 23.2846 12.4291C23.2207 12.1039 22.9293 11.7791 22.4548 11.6645C22.3099 11.6295 22.1077 11.625 21.4776 11.625H10.5235C9.89344 11.625 9.69121 11.6295 9.5463 11.6645C9.07184 11.7791 8.78045 12.1039 8.71652 12.4291C8.6986 12.5202 8.70664 12.6566 8.77116 13.2204C8.82575 13.6974 8.97045 14.0199 9.18712 14.2602C9.4097 14.5072 9.75682 14.7214 10.3088 14.8916L13.7133 15.9415C13.7189 15.8319 13.7314 15.724 13.7586 15.6224C13.8934 15.1192 14.2865 14.7261 14.7898 14.5912C14.9786 14.5406 15.1894 14.5411 15.3916 14.5415L15.445 14.5415H16.5561L16.6095 14.5415C16.8117 14.5411 17.0226 14.5406 17.2113 14.5912C17.7146 14.7261 18.1077 15.1192 18.2425 15.6224C18.2698 15.724 18.2822 15.832 18.2878 15.9415ZM14.9666 15.9439C14.9861 15.8737 15.041 15.8188 15.1113 15.7992C15.1153 15.7985 15.1317 15.7962 15.1696 15.7944C15.2299 15.7917 15.3102 15.7915 15.445 15.7915H16.5561C16.691 15.7915 16.7712 15.7917 16.8315 15.7944C16.8695 15.7962 16.8858 15.7985 16.8899 15.7992C16.9601 15.8188 17.015 15.8737 17.0346 15.9439C17.0353 15.948 17.0376 15.9643 17.0393 16.0022C17.0421 16.0625 17.0422 16.1428 17.0422 16.2776V16.8332C17.0422 17.4085 16.5759 17.8749 16.0006 17.8749C15.4253 17.8749 14.9589 17.4085 14.9589 16.8332V16.2776C14.9589 16.1428 14.9591 16.0625 14.9618 16.0022C14.9635 15.9643 14.9659 15.948 14.9666 15.9439Z" fill="url(#paint0_linear_633_22107)"/>
<defs>
<linearGradient id="paint0_linear_633_22107" x1="16.0006" y1="7.45825" x2="16.0006" y2="24.5416" gradientUnits="userSpaceOnUse">
<stop stop-color="#FE406F"/>
<stop offset="1" stop-color="#FD6B38"/>
</linearGradient>
</defs>
</svg>
