<svg width="32" height="32" viewBox="0 0 32 32" fill="none" xmlns="http://www.w3.org/2000/svg">
<rect width="32" height="32" rx="16" fill="#EAEAEE"/>
<path fill-rule="evenodd" clip-rule="evenodd" d="M16 7.45801C19.8992 7.45801 21.8576 7.45828 23.1992 8.80078C24.5417 10.1433 24.542 12.1009 24.542 16C24.542 19.8991 24.5417 21.8576 23.1992 23.1992C21.8567 24.5417 19.8992 24.542 16 24.542C12.1 24.542 10.1424 24.5417 8.80078 23.1992C7.45828 21.8567 7.45801 19.8992 7.45801 16C7.45801 12.1008 7.45828 10.1424 8.80078 8.80078C10.1433 7.45828 12.1008 7.45801 16 7.45801ZM10.1904 22.6934C11.2454 23.2884 12.9854 23.292 16 23.292C17.2022 23.292 18.2017 23.2897 19.0361 23.252L14.334 18.5498L10.1904 22.6934ZM16 8.70801C12.445 8.70801 10.6612 8.70874 9.68457 9.68457C9.2837 10.0854 9.04834 10.6227 8.90918 11.3633C8.91991 11.3726 8.93216 11.3804 8.94238 11.3906L20.6094 23.0576C20.6193 23.0675 20.6267 23.0795 20.6357 23.0898C21.3765 22.9507 21.9141 22.7164 22.3154 22.3154C23.2913 21.3396 23.292 19.555 23.292 16C23.292 12.445 23.2913 10.6612 22.3154 9.68457C21.3396 8.70874 19.555 8.70801 16 8.70801ZM8.74707 12.9639C8.70935 13.7983 8.70801 14.798 8.70801 16C8.70801 19.0144 8.71072 20.7543 9.30566 21.8096L13.4492 17.666L8.74707 12.9639ZM18.083 10.375C19.498 10.375 20.8138 11.2512 21.3555 12.5537C22.2966 14.8166 20.5869 16.439 19.3379 17.623C19.2371 17.718 19.1367 17.8129 19.04 17.9062C18.7809 18.1553 18.4412 18.292 18.083 18.292C17.7248 18.2919 17.386 18.1546 17.127 17.9072C17.0211 17.8047 16.9151 17.7041 16.8076 17.6016C15.5702 16.4225 13.8744 14.8085 14.8115 12.5537C15.354 11.2505 16.6681 10.3751 18.083 10.375ZM18.083 11.625C17.1673 11.6251 16.3166 12.1909 15.9658 13.0332C15.4008 14.3932 16.2731 15.3671 17.6689 16.6963C17.7789 16.8013 17.8874 16.9044 17.9932 17.0068C18.0373 17.0493 18.1238 17.0513 18.1738 17.0039C18.2721 16.9089 18.3741 16.8133 18.4766 16.7158C19.8866 15.3783 20.7685 14.3997 20.2002 13.0322C19.8502 12.19 18.9994 11.6242 18.083 11.624V11.625ZM18.0918 13.083C18.5517 13.0831 18.9248 13.4571 18.9248 13.917C18.9246 14.3768 18.5516 14.7499 18.0918 14.75H18.0908C17.6309 14.75 17.2541 14.3768 17.2539 13.917C17.2539 13.457 17.6232 13.0831 18.084 13.083H18.0918Z" fill="url(#paint0_linear_633_22102)"/>
<defs>
<linearGradient id="paint0_linear_633_22102" x1="16" y1="7.45801" x2="16" y2="24.542" gradientUnits="userSpaceOnUse">
<stop stop-color="#FE406F"/>
<stop offset="1" stop-color="#FD6B38"/>
</linearGradient>
</defs>
</svg>
