<svg width="32" height="32" viewBox="0 0 32 32" fill="none" xmlns="http://www.w3.org/2000/svg">
<rect width="32" height="32" rx="16" fill="#EAEAEE"/>
<path fill-rule="evenodd" clip-rule="evenodd" d="M16.0479 7.45801C17.8733 7.458 19.3073 7.45789 20.4268 7.6084C21.5739 7.76264 22.4841 8.08563 23.1992 8.80078C23.9144 9.51594 24.2374 10.4261 24.3916 11.5732C24.5421 12.6927 24.542 14.1267 24.542 15.9521V16.0479C24.542 17.8733 24.5421 19.3073 24.3916 20.4268C24.2374 21.5739 23.9144 22.4841 23.1992 23.1992C22.4841 23.9144 21.5739 24.2374 20.4268 24.3916C19.3073 24.5421 17.8733 24.542 16.0479 24.542H15.9521C14.1267 24.542 12.6927 24.5421 11.5732 24.3916C10.4261 24.2374 9.51594 23.9144 8.80078 23.1992C8.08563 22.4841 7.76264 21.5739 7.6084 20.4268C7.45789 19.3073 7.458 17.8733 7.45801 16.0479V15.9521C7.458 14.1267 7.45789 12.6927 7.6084 11.5732C7.76264 10.4261 8.08563 9.51594 8.80078 8.80078C9.51594 8.08563 10.4261 7.76264 11.5732 7.6084C12.6927 7.45789 14.1267 7.458 15.9521 7.45801H16.0479ZM16 8.70801C14.1166 8.70801 12.7668 8.70968 11.7402 8.84766C10.7316 8.98326 10.1288 9.24037 9.68457 9.68457C9.24037 10.1288 8.98326 10.7316 8.84766 11.7402C8.70968 12.7668 8.70801 14.1166 8.70801 16C8.70801 17.8834 8.70968 19.2332 8.84766 20.2598C8.98326 21.2684 9.24037 21.8712 9.68457 22.3154C10.1288 22.7596 10.7316 23.0167 11.7402 23.1523C12.7668 23.2903 14.1165 23.292 16 23.292C17.8834 23.292 19.2332 23.2903 20.2598 23.1523C21.2684 23.0167 21.8712 22.7596 22.3154 22.3154C22.7596 21.8712 23.0167 21.2684 23.1523 20.2598C23.2903 19.2332 23.292 17.8834 23.292 16C23.292 14.1165 23.2903 12.7668 23.1523 11.7402C23.0167 10.7316 22.7596 10.1288 22.3154 9.68457C21.8712 9.24037 21.2684 8.98326 20.2598 8.84766C19.2332 8.70968 17.8834 8.70801 16 8.70801ZM15.583 11.208C15.9281 11.208 16.2078 11.488 16.208 11.833V12.3574H20.167C20.5119 12.3576 20.7918 12.6375 20.792 12.9824C20.792 13.3275 20.512 13.6072 20.167 13.6074H18.5439C18.0946 14.9414 17.3439 16.1905 16.499 17.3037L17.7305 18.584C17.9696 18.8328 17.9616 19.2285 17.7129 19.4678C17.4641 19.7069 17.0684 19.6989 16.8291 19.4502L15.7061 18.2832C14.9396 19.1737 14.1362 19.9656 13.417 20.627C13.163 20.8604 12.7678 20.8437 12.5342 20.5898C12.3006 20.3358 12.3173 19.9407 12.5713 19.707C13.3018 19.0353 14.1083 18.2365 14.8633 17.3457C14.6729 17.1065 14.4754 16.847 14.2949 16.5967C14.0143 16.2076 13.7413 15.796 13.6064 15.5068C13.4607 15.1941 13.5955 14.8217 13.9082 14.6758C14.2211 14.53 14.5934 14.6656 14.7393 14.9785C14.8188 15.149 15.027 15.4756 15.3086 15.8662C15.4215 16.0227 15.5417 16.182 15.6611 16.3369C16.2962 15.4726 16.8421 14.5541 17.2139 13.6074H11.833C11.488 13.6072 11.208 13.3275 11.208 12.9824C11.2082 12.6375 11.4881 12.3576 11.833 12.3574H14.958V11.833C14.9582 11.4881 15.2381 11.2082 15.583 11.208Z" fill="url(#paint0_linear_633_22113)"/>
<defs>
<linearGradient id="paint0_linear_633_22113" x1="16" y1="7.45801" x2="16" y2="24.542" gradientUnits="userSpaceOnUse">
<stop stop-color="#FE406F"/>
<stop offset="1" stop-color="#FD6B38"/>
</linearGradient>
</defs>
</svg>
