<svg width="24" height="24" viewBox="0 0 24 24" fill="none" xmlns="http://www.w3.org/2000/svg">
<path d="M11.125 13.75C7.28668 13.75 4.25 17.0385 4.25 21C4.25 21.4142 4.58579 21.75 5 21.75H19C19.4142 21.75 19.75 21.4142 19.75 21C19.75 17.0385 16.7133 13.75 12.875 13.75H11.125ZM19.3643 13.8447C19.0023 13.6435 18.546 13.7738 18.3447 14.1357C18.1434 14.4978 18.2737 14.954 18.6357 15.1553C20.1493 15.9968 21.25 17.8991 21.25 20C21.25 20.4142 21.5858 20.75 22 20.75C22.4142 20.75 22.75 20.4142 22.75 20C22.75 17.4228 21.4106 14.9825 19.3643 13.8447ZM5.65527 14.1357C5.45403 13.7738 4.99773 13.6436 4.63574 13.8447C2.58939 14.9825 1.25005 17.4228 1.25 20C1.25 20.4142 1.58579 20.75 2 20.75C2.41416 20.7499 2.75 20.4142 2.75 20C2.75005 17.8991 3.85071 15.9968 5.36426 15.1553C5.7262 14.954 5.85653 14.4977 5.65527 14.1357ZM12.875 15.25C15.5706 15.25 17.8598 17.397 18.2051 20.25H5.79492C6.14024 17.397 8.42941 15.25 11.125 15.25H12.875ZM12 3.25C9.65279 3.25 7.75 5.15279 7.75 7.5C7.75 9.84721 9.65279 11.75 12 11.75C14.3472 11.75 16.25 9.84721 16.25 7.5C16.25 5.15279 14.3472 3.25 12 3.25ZM17.876 4.85059C17.5174 4.64318 17.058 4.76645 16.8506 5.125C16.6436 5.48339 16.7658 5.94201 17.124 6.14941C17.8246 6.55469 18.25 7.19618 18.25 8C18.25 8.80388 17.8247 9.44529 17.124 9.85059C16.7656 10.058 16.6432 10.5175 16.8506 10.876C17.058 11.2344 17.5175 11.3568 17.876 11.1494C18.9686 10.5173 19.75 9.41684 19.75 8C19.75 6.58318 18.9686 5.48271 17.876 4.85059ZM7.14941 5.125C6.94201 4.76645 6.48257 4.64318 6.12402 4.85059C5.03134 5.4827 4.25005 6.58313 4.25 8C4.25 9.41688 5.03136 10.5173 6.12402 11.1494C6.48254 11.3568 6.94198 11.2345 7.14941 10.876C7.35682 10.5174 7.23355 10.058 6.875 9.85059C6.17463 9.44527 5.75 8.8037 5.75 8C5.75005 7.19631 6.17461 6.5547 6.875 6.14941C7.23339 5.9421 7.35645 5.48348 7.14941 5.125ZM12 4.75C13.5188 4.75 14.75 5.98122 14.75 7.5C14.75 9.01878 13.5188 10.25 12 10.25C10.4812 10.25 9.25 9.01878 9.25 7.5C9.25 5.98122 10.4812 4.75 12 4.75Z" fill="white"/>
</svg>
