<svg width="15" height="15" viewBox="0 0 15 15" fill="none" xmlns="http://www.w3.org/2000/svg">
<path d="M7.16699 14.334C11.125 14.334 14.334 11.125 14.334 7.16699C14.334 3.20895 11.125 0 7.16699 0C3.20896 9.01917e-06 0 3.20896 0 7.16699C7.44234e-07 8.15423 0.200489 9.09596 0.5625 9.95312C0.657471 10.178 0.720909 10.3305 0.763672 10.4473C0.807153 10.566 0.813672 10.6089 0.814453 10.6201C0.818785 10.6827 0.803385 10.768 0.695313 11.1719L0.0175781 13.7041C-0.0285762 13.8766 0.0202215 14.0612 0.146484 14.1875C0.272751 14.3138 0.457382 14.3626 0.629883 14.3164L3.16211 13.6387C3.56604 13.5306 3.65127 13.5152 3.71387 13.5195C3.72502 13.5203 3.76794 13.5268 3.88672 13.5703C4.00348 13.6131 4.15599 13.6765 4.38086 13.7715C5.23803 14.1335 6.17975 14.334 7.16699 14.334ZM7.16699 13.334C6.31578 13.334 5.50581 13.1616 4.76953 12.8506L4.75781 12.8457C4.54783 12.757 4.37371 12.683 4.23145 12.6309C4.08887 12.5786 3.93838 12.5323 3.7832 12.5215C3.53109 12.504 3.2692 12.5745 2.96875 12.6553C2.94726 12.6611 2.92522 12.667 2.90332 12.6729L1.20703 13.127L1.66113 11.4307C1.66699 11.4088 1.67293 11.3867 1.67871 11.3652C1.75953 11.0648 1.82995 10.8029 1.8125 10.5508C1.80171 10.3956 1.75534 10.2451 1.70313 10.1025C1.65101 9.96028 1.57697 9.78615 1.48828 9.57617L1.4834 9.56445C1.17243 8.82817 1 8.01821 1 7.16699C1 3.76124 3.76124 1.00001 7.16699 1C10.5727 1 13.334 3.76124 13.334 7.16699C13.334 10.5727 10.5727 13.334 7.16699 13.334ZM9.04395 10.9248C9.29691 10.9822 9.53393 11.0358 9.84473 10.9707C10.0714 10.9232 10.282 10.8024 10.4453 10.6719C10.6086 10.5413 10.7719 10.3621 10.8682 10.1514C11.0006 9.86137 11.0005 9.5667 11 9.24707C11 9.22658 11 9.20527 11 9.18457C11 9.03761 10.9956 8.79003 10.9004 8.56152C10.7865 8.28854 10.5519 8.06354 10.1846 8.00586L10.1807 8.00488C9.72518 7.9335 9.37876 7.87936 9.13379 7.84375C9.01119 7.82593 8.90871 7.81275 8.8291 7.80371C8.76369 7.79628 8.67383 7.78662 8.59863 7.79102C8.27228 7.81012 8.01257 7.9423 7.81152 8.08008C7.68358 8.16775 7.54488 8.28559 7.43555 8.37793C7.3926 8.4142 7.35357 8.44647 7.32227 8.47168L6.86816 8.83789C6.61337 8.64731 6.36692 8.4343 6.13281 8.2002C5.89887 7.96622 5.68656 7.72047 5.49609 7.46582L5.8623 7.01074C5.88748 6.97948 5.91989 6.94126 5.95605 6.89844C6.04839 6.78911 6.16623 6.6504 6.25391 6.52246C6.39166 6.32144 6.52383 6.06164 6.54297 5.73535C6.54738 5.66004 6.53771 5.56934 6.53027 5.50391C6.52123 5.42437 6.50802 5.32254 6.49023 5.2002C6.45462 4.95521 6.39953 4.60892 6.32813 4.15332V4.14941C6.27047 3.78188 6.04462 3.54742 5.77148 3.43359C5.54317 3.33856 5.2963 3.33399 5.14941 3.33398C5.12872 3.33398 5.1074 3.33402 5.08691 3.33398C4.76739 3.33344 4.47252 3.33255 4.18262 3.46484C3.97185 3.56112 3.79172 3.7253 3.66113 3.88867C3.5307 4.05193 3.41077 4.26272 3.36328 4.48926C3.29819 4.80012 3.35176 5.03701 3.40918 5.29004C3.41182 5.30167 3.41435 5.31349 3.41699 5.3252C3.70664 6.60786 4.38416 7.86545 5.42578 8.90723C6.46763 9.94907 7.72596 10.6263 9.00879 10.916C9.0205 10.9187 9.03232 10.9222 9.04395 10.9248ZM4.93262 6.57031C4.68457 6.0935 4.5043 5.59927 4.39258 5.10449C4.32643 4.81151 4.32484 4.7753 4.3418 4.69434C4.34807 4.66444 4.37753 4.59385 4.44238 4.5127C4.50719 4.43162 4.56981 4.38778 4.59766 4.375C4.66642 4.34359 4.7329 4.33398 5.14941 4.33398C5.21467 4.33399 5.26781 4.33554 5.3125 4.34082C5.32573 4.34239 5.33718 4.34397 5.34668 4.3457C5.41551 4.78492 5.46634 5.11319 5.5 5.34473C5.51735 5.46412 5.52986 5.5534 5.53711 5.61719C5.54215 5.66156 5.54347 5.68309 5.54395 5.68848C5.53707 5.76353 5.50529 5.84528 5.42871 5.95703C5.36904 6.04409 5.31035 6.11327 5.2373 6.19922C5.19261 6.25181 5.14191 6.31063 5.08301 6.38379L4.93262 6.57031ZM9.63965 9.99121C9.5587 10.0082 9.52232 10.0075 9.22949 9.94141C8.73456 9.82965 8.23964 9.64856 7.7627 9.40039L7.9502 9.25098C8.02335 9.19207 8.08218 9.14137 8.13477 9.09668C8.22072 9.02363 8.28988 8.96495 8.37695 8.90527C8.48877 8.82865 8.57042 8.79689 8.64551 8.79004C8.6509 8.79051 8.67243 8.79183 8.7168 8.79688C8.7806 8.80413 8.86988 8.81663 8.98926 8.83398C9.22071 8.86763 9.54831 8.91851 9.9873 8.9873C9.98904 8.99683 9.99159 9.0082 9.99316 9.02148C9.99845 9.06619 9.99999 9.11927 10 9.18457C10 9.60108 9.9904 9.66756 9.95898 9.73633C9.94617 9.76421 9.9023 9.82685 9.82129 9.8916C9.74041 9.95624 9.66972 9.9848 9.63965 9.99121Z" fill="white"/>
</svg>
